<?xml version="1.0" encoding="UTF-8"?>
<svg id="Capa_2" data-name="Capa 2" xmlns="http://www.w3.org/2000/svg" viewBox="0 0 20.4 15.58">
  <defs>
    <style>
      .cls-1 {
        fill: #262626;
      }
    </style>
  </defs>
  <g id="Capa_1-2" data-name="Capa 1">
    <g>
      <path class="cls-1" d="M19.4,15.58H1c-.55,0-1-.45-1-1s.45-1,1-1H19.4c.55,0,1,.45,1,1s-.45,1-1,1Z"/>
      <path class="cls-1" d="M19.4,8.79H1c-.55,0-1-.45-1-1s.45-1,1-1H19.4c.55,0,1,.45,1,1s-.45,1-1,1Z"/>
      <path class="cls-1" d="M19.4,2H1c-.55,0-1-.45-1-1S.45,0,1,0H19.4c.55,0,1,.45,1,1s-.45,1-1,1Z"/>
    </g>
  </g>
</svg>