<?xml version="1.0" encoding="UTF-8"?>
<svg id="Capa_2" data-name="Capa 2" xmlns="http://www.w3.org/2000/svg" viewBox="0 0 25.17 32.11">
  <defs>
    <style>
      .cls-1 {
        fill: #262626;
      }
    </style>
  </defs>
  <g id="Capa_1-2" data-name="Capa 1">
    <g>
      <path class="cls-1" d="M19.53,4.64H1c-.55,0-1,.45-1,1V23.99c0,.27,.11,.52,.29,.71l7.12,7.11s0,0,0,0h0s.02,.01,.03,.02c.09,.08,.18,.15,.29,.19,.12,.05,.25,.08,.39,.08h11.4c.55,0,1-.45,1-1V5.64c0-.55-.45-1-1-1ZM7.13,28.69l-3.72-3.71h3.72v3.71Zm11.41,1.42H9.13v-6.13c0-.55-.45-1-1-1H2V6.64H18.53V30.11Z"/>
      <path class="cls-1" d="M24.17,0H5.64c-.55,0-1,.45-1,1s.45,1,1,1H23.17V26.47c0,.55,.45,1,1,1s1-.45,1-1V1c0-.55-.45-1-1-1Z"/>
    </g>
  </g>
</svg>