<?xml version="1.0" encoding="UTF-8"?>
<svg id="Capa_2" data-name="Capa 2" xmlns="http://www.w3.org/2000/svg" viewBox="0 0 31.37 30.59">
  <defs>
    <style>
      .cls-1 {
        fill: #262626;
      }
    </style>
  </defs>
  <g id="Capa_1-2" data-name="Capa 1">
    <path class="cls-1" d="M31.37,16.22c-.01,.34-.03,.68-.06,1.02-.11,1.1-.32,2.17-.66,3.21-1.27,3.85-3.66,6.8-7.15,8.85-.86,.5-1.77,.91-2.71,1.23-.19,.07-.39,.08-.59,.03-.33-.07-.54-.34-.56-.68,0-.07,0-.14,0-.21,0-1.36,0-2.73,.01-4.09,0-.55-.05-1.09-.21-1.62-.16-.5-.4-.95-.78-1.31-.01-.01-.02-.02-.04-.05,.12-.02,.23-.03,.33-.05,.79-.1,1.58-.26,2.34-.52,.83-.28,1.59-.68,2.26-1.26,.83-.72,1.38-1.61,1.73-2.65,.25-.74,.38-1.5,.44-2.28,.03-.42,.04-.85,.03-1.27-.05-1.46-.55-2.74-1.5-3.84-.07-.08-.08-.14-.05-.24,.25-.72,.31-1.46,.24-2.22-.05-.58-.19-1.14-.4-1.69-.03-.09-.07-.13-.17-.14-.35-.04-.68,.01-1.02,.09-.69,.16-1.33,.45-1.95,.79-.38,.21-.75,.43-1.11,.68-.08,.05-.14,.07-.24,.04-1.49-.41-3.02-.55-4.56-.48-1.03,.05-2.04,.2-3.03,.48-.09,.03-.16,.01-.24-.04-.7-.47-1.43-.89-2.22-1.19-.47-.19-.95-.33-1.46-.37-.14-.01-.28,0-.43,0-.06,0-.1,.03-.12,.09-.47,1.25-.6,2.51-.22,3.81,.03,.09,.09,.19,.08,.27-.02,.08-.11,.15-.17,.23-.77,.92-1.22,1.98-1.37,3.17-.07,.59-.05,1.18-.01,1.77,.04,.61,.13,1.21,.28,1.8,.23,.89,.6,1.71,1.17,2.43,.64,.81,1.46,1.37,2.4,1.78,.68,.29,1.38,.48,2.11,.61,.36,.07,.73,.12,1.1,.16,.02,.03,0,.05-.01,.06-.45,.43-.7,.96-.85,1.55-.03,.14-.06,.28-.08,.42,0,.05-.02,.08-.07,.1-.83,.35-1.69,.51-2.58,.27-.65-.18-1.16-.56-1.58-1.08-.12-.16-.23-.32-.34-.49-.27-.44-.61-.82-1.02-1.13-.42-.31-.88-.5-1.4-.5-.15,0-.3,.01-.44,.05-.03,0-.07,.02-.1,.03-.18,.08-.22,.2-.12,.37,.05,.09,.11,.16,.18,.22,.12,.11,.25,.22,.39,.29,.3,.16,.53,.38,.73,.64,.42,.54,.77,1.11,1.03,1.75,.35,.86,.99,1.4,1.86,1.69,.56,.18,1.14,.23,1.72,.22,.51,0,1.02-.06,1.52-.15,.13-.02,.13-.02,.13,.11,0,.92,.02,1.84,.02,2.76,0,.5-.3,.8-.8,.8-.14,0-.27-.02-.41-.07-4.72-1.61-8.42-5.42-9.9-10.2-.3-.96-.5-1.93-.6-2.93-.02-.23-.05-.47-.06-.7,0-.04,0-.07-.02-.1,.02-.04,0-.09,0-.13,0-.15-.05-.3-.04-.45v-.92s.03-.1,.03-.15c.04-.41,.06-.81,.11-1.22,.15-1.22,.44-2.42,.88-3.57C2.44,6.49,4.88,3.72,8.32,1.85,10.37,.74,12.57,.14,14.89,.02c.94-.05,1.89-.02,2.83,.11,.9,.12,1.78,.3,2.64,.57,4.2,1.31,7.65,4.3,9.53,8.28,.94,1.99,1.45,4.08,1.48,6.29,0,.32,0,.63,0,.95Z"/>
  </g>
</svg>