<?xml version="1.0" encoding="UTF-8"?>
<svg id="Capa_2" data-name="Capa 2" xmlns="http://www.w3.org/2000/svg" viewBox="0 0 29.39 29.39">
  <defs>
    <style>
      .cls-1 {
        fill: #262626;
      }
    </style>
  </defs>
  <g id="Capa_1-2" data-name="Capa 1">
    <path class="cls-1" d="M14.7,29.39C6.63,29.39,.04,22.83,0,14.76c0-.46,.32-.87,.77-.98,.44-.11,.92,.11,1.13,.52,1.58,3.15,4.74,5.1,8.26,5.1,5.1,0,9.25-4.15,9.25-9.25,0-3.52-1.95-6.68-5.1-8.26-.42-.21-.63-.67-.52-1.13,.11-.45,.51-.77,.97-.77h0c8.06,.04,14.62,6.63,14.62,14.69s-6.59,14.7-14.69,14.7ZM2.58,18.49c1.62,5.15,6.45,8.9,12.12,8.9,7,0,12.69-5.7,12.69-12.7,0-5.67-3.75-10.49-8.9-12.11,1.86,2.03,2.92,4.71,2.92,7.58,0,6.21-5.05,11.25-11.25,11.25-2.87,0-5.54-1.07-7.58-2.92Z"/>
  </g>
</svg>