<?xml version="1.0" encoding="UTF-8"?>
<svg id="Capa_2" data-name="Capa 2" xmlns="http://www.w3.org/2000/svg" viewBox="0 0 27.44 29.39">
  <defs>
    <style>
      .cls-1 {
        fill: #262626;
      }
    </style>
  </defs>
  <g id="Capa_1-2" data-name="Capa 1">
    <path class="cls-1" d="M22.82,20.14c-1.38,0-2.6,.62-3.45,1.57l-10.34-5.72c.12-.41,.21-.84,.21-1.3s-.09-.89-.21-1.3l10.34-5.72c.85,.96,2.07,1.57,3.45,1.57,2.55,0,4.62-2.07,4.62-4.62S25.37,0,22.82,0s-4.62,2.07-4.62,4.62c0,.45,.09,.88,.21,1.3l-10.34,5.72c-.85-.95-2.07-1.57-3.44-1.57-2.55,0-4.62,2.07-4.62,4.62s2.07,4.62,4.62,4.62c1.38,0,2.6-.62,3.45-1.57l10.34,5.73c-.12,.41-.21,.84-.21,1.3,0,2.55,2.07,4.62,4.62,4.62s4.62-2.07,4.62-4.62-2.07-4.62-4.62-4.62Zm0-18.14c1.45,0,2.62,1.18,2.62,2.62s-1.18,2.62-2.62,2.62-2.62-1.18-2.62-2.62,1.18-2.62,2.62-2.62ZM4.62,17.31c-1.45,0-2.62-1.18-2.62-2.62s1.18-2.62,2.62-2.62,2.62,1.18,2.62,2.62-1.18,2.62-2.62,2.62Zm18.2,10.07c-1.45,0-2.62-1.18-2.62-2.62s1.18-2.62,2.62-2.62,2.62,1.18,2.62,2.62-1.18,2.62-2.62,2.62Z"/>
  </g>
</svg>