<?xml version="1.0" encoding="UTF-8"?>
<svg id="Capa_2" data-name="Capa 2" xmlns="http://www.w3.org/2000/svg" viewBox="0 0 32.42 32.42">
  <defs>
    <style>
      .cls-1 {
        fill: #262626;
      }
    </style>
  </defs>
  <g id="Capa_1-2" data-name="Capa 1">
    <g>
      <path class="cls-1" d="M16.21,23.99c-4.29,0-7.79-3.49-7.79-7.79s3.49-7.79,7.79-7.79,7.79,3.49,7.79,7.79-3.49,7.79-7.79,7.79Zm0-13.58c-3.19,0-5.79,2.6-5.79,5.79s2.6,5.79,5.79,5.79,5.79-2.6,5.79-5.79-2.6-5.79-5.79-5.79Z"/>
      <path class="cls-1" d="M31.42,17.2h-3.15c-.55,0-1-.45-1-1s.45-1,1-1h3.15c.55,0,1,.45,1,1s-.45,1-1,1Z"/>
      <path class="cls-1" d="M4.16,17.2H1c-.55,0-1-.45-1-1s.45-1,1-1h3.16c.55,0,1,.45,1,1s-.45,1-1,1Z"/>
      <path class="cls-1" d="M26.96,27.95c-.26,0-.51-.1-.71-.29l-2.23-2.23c-.39-.39-.39-1.02,0-1.41s1.02-.39,1.41,0l2.23,2.23c.39,.39,.39,1.02,0,1.41-.2,.2-.45,.29-.71,.29Z"/>
      <path class="cls-1" d="M7.69,8.69c-.26,0-.51-.1-.71-.29l-2.24-2.24c-.39-.39-.39-1.02,0-1.41s1.02-.39,1.41,0l2.24,2.24c.39,.39,.39,1.02,0,1.41-.2,.2-.45,.29-.71,.29Z"/>
      <path class="cls-1" d="M16.21,32.42c-.55,0-1-.45-1-1v-3.16c0-.55,.45-1,1-1s1,.45,1,1v3.16c0,.55-.45,1-1,1Z"/>
      <path class="cls-1" d="M16.21,5.15c-.55,0-1-.45-1-1V1c0-.55,.45-1,1-1s1,.45,1,1v3.15c0,.55-.45,1-1,1Z"/>
      <path class="cls-1" d="M5.45,27.95c-.26,0-.51-.1-.71-.29-.39-.39-.39-1.02,0-1.41l2.2-2.19c.18-.21,.45-.33,.74-.33,.55,0,1,.44,1,1,0,.27-.11,.53-.29,.72l-2.24,2.23c-.19,.19-.45,.29-.71,.29Z"/>
      <path class="cls-1" d="M24.73,8.68c-.26,0-.51-.1-.71-.29-.39-.39-.39-1.02,0-1.41l2.23-2.23c.39-.39,1.02-.39,1.41,0s.39,1.02,0,1.41l-2.23,2.23c-.2,.2-.45,.29-.71,.29Z"/>
    </g>
  </g>
</svg>