<?xml version="1.0" encoding="UTF-8"?>
<svg id="Capa_2" data-name="Capa 2" xmlns="http://www.w3.org/2000/svg" viewBox="0 0 28.38 27.79">
  <defs>
    <style>
      .cls-1 {
        fill: #262626;
      }
    </style>
  </defs>
  <g id="Capa_1-2" data-name="Capa 1">
    <path class="cls-1" d="M27.38,5.23h-5.52V2.73c0-1.51-1.23-2.73-2.73-2.73H9.25c-1.51,0-2.73,1.23-2.73,2.73v2.5H1c-.55,0-1,.45-1,1s.45,1,1,1H3.48l.98,19.6c.03,.53,.47,.95,1,.95H22.92c.53,0,.97-.42,1-.95l.98-19.6h2.48c.55,0,1-.45,1-1s-.45-1-1-1ZM8.52,2.73c0-.4,.33-.73,.73-.73h9.87c.4,0,.73,.33,.73,.73v2.5H8.52V2.73Zm13.45,23.06H6.41l-.93-18.55H22.9l-.93,18.55Z"/>
  </g>
</svg>