<?xml version="1.0" encoding="UTF-8"?>
<svg id="Capa_2" data-name="Capa 2" xmlns="http://www.w3.org/2000/svg" viewBox="0 0 26.41 24.73">
  <defs>
    <style>
      .cls-1 {
        fill: #262626;
      }
    </style>
  </defs>
  <g id="Capa_1-2" data-name="Capa 1">
    <g>
      <path class="cls-1" d="M25.41,15.41c-.55,0-1,.45-1,1v6.32H2v-6.32c0-.55-.45-1-1-1s-1,.45-1,1v7.32c0,.55,.45,1,1,1H25.41c.55,0,1-.45,1-1v-7.32c0-.55-.45-1-1-1Z"/>
      <path class="cls-1" d="M10.68,4.74h1.52v12.25c0,.55,.45,1,1,1s1-.45,1-1V4.74h1.52c.4,0,.76-.23,.92-.6,.16-.36,.09-.79-.18-1.08L13.94,.32c-.19-.21-.46-.32-.74-.32s-.55,.12-.74,.32l-2.52,2.74c-.27,.29-.34,.72-.18,1.08,.16,.36,.52,.6,.92,.6Z"/>
    </g>
  </g>
</svg>