<?xml version="1.0" encoding="UTF-8"?>
<svg id="Capa_2" xmlns="http://www.w3.org/2000/svg" viewBox="0 0 28.63 28.16">
  <defs>
    <style>
      .cls-1 {
        fill: #fff;
      }
    </style>
  </defs>
  <g id="Capa_1-2" data-name="Capa_1">
    <g>
      <path class="cls-1" d="M0,2.86v22.43c0,1.58,1.28,2.86,2.86,2.86h22.9c1.58,0,2.86-1.28,2.86-2.86V2.86c0-1.58-1.28-2.86-2.86-2.86H2.86C1.28,0,0,1.28,0,2.86ZM25.77,27.34H2.75c-1.13,0-2.05-.92-2.05-2.05V2.86C.7,1.73,1.62.81,2.75.81h23.01c1.13,0,2.05.92,2.05,2.05v22.42c0,1.13-.92,2.05-2.05,2.05Z"/>
      <polygon class="cls-1" points="24.45 23.48 24.93 24.31 23.15 24.31 23.63 23.48 23.63 17.62 19.63 17.62 19.63 23.48 20.11 24.31 18.34 24.31 18.82 23.48 18.82 17.69 18.1 17.27 18.82 16.86 18.82 4.68 18.34 3.85 20.11 3.85 19.63 4.68 19.63 16.8 23.63 16.8 23.63 4.68 23.15 3.85 24.93 3.85 24.45 4.68 24.45 16.86 25.17 17.27 24.45 17.69 24.45 23.48"/>
      <polygon class="cls-1" points="5.33 4.65 5.33 16.8 7.82 16.8 8.65 16.32 8.65 18.1 7.82 17.62 5.33 17.62 5.33 23.48 5.81 24.31 4.04 24.31 4.52 23.48 4.52 17.69 3.8 17.27 4.52 16.86 4.52 4.68 4.04 3.85 9.67 3.85 8.78 5.39 8.36 4.65 5.33 4.65"/>
      <polygon class="cls-1" points="15.61 16.77 15.61 5.29 15.25 4.66 11.97 4.66 11.61 5.29 11.61 22.86 11.98 23.49 15.24 23.49 15.61 22.85 15.61 19 16.43 18.53 16.43 23.1 16.38 23.19 15.97 23.9 15.73 24.31 11.49 24.31 11.26 23.9 10.85 23.19 10.8 23.1 10.8 17.72 10.03 17.27 10.8 16.83 10.8 5.04 10.85 4.95 11.26 4.24 11.48 3.85 15.74 3.85 15.97 4.24 16.38 4.95 16.43 5.04 16.43 16.3 15.61 16.77"/>
      <circle class="cls-1" cx="8.28" cy="23.79" r=".52"/>
    </g>
  </g>
</svg>