<?xml version="1.0" encoding="UTF-8"?>
<svg id="Capa_2" xmlns="http://www.w3.org/2000/svg" viewBox="0 0 67.87 37.24">
  <defs>
    <style>
      .cls-1 {
        fill: #9d9da5;
      }
    </style>
  </defs>
  <g id="Capa_1-2" data-name="Capa_1">
    <g>
      <path class="cls-1" d="M.02,37.24l.96-1.52c.27-.41.41-.89.41-1.42V2.94c0-.53-.14-1.01-.41-1.42L0,.04l16.14-.04c.07,0,.11.02.11.02,0,.02.01.07-.04.13l-3,4.47c-.26.4-.53.62-.75.62-.18,0-.35-.14-.41-.21l-.73-.85c-.3-.3-.68-.56-1.58-.56h-2.73c-.48,0-.99.4-.99,1.27v11.31c0,.54.47,1,1.02,1h.17c1.08-.11,2.14-.58,3.26-1.08l.52-.23c.84-.35,1.66-.88,2.64-1.72l.76-.66.05,6.45-1.32-.57c-.31-.14-.64-.21-1-.21s-.69.07-1.03.2l-.54.25c-1.22.57-2.37,1.11-3.53,1.25h0c-.53,0-.98.48-.98,1.1v12.51c0,.36.16.83.41,1.21l.98,1.48-.02.04H.02Z"/>
      <path class="cls-1" d="M22.82,37.24c-.26,0-.57-.12-.74-.29l-2.84-2.84c-.17-.17-.29-.48-.29-.74V3.87c0-.26.12-.57.29-.74l2.84-2.84c.17-.17.48-.29.74-.29h8.96c.29,0,.55.1.74.29l2.84,2.84c.17.17.29.48.29.74v11.46c0,.38.14.72.26.99l.05.13.39.84-6.05,1.49.44-.79c.15-.3.34-.74.34-1.29V5.4c0-.34-.15-.55-.26-.7l-.09-.12-.49-.55c-.15-.23-.49-.38-.92-.38h-4.04c-.32,0-.61.13-.85.37l-.55.54c-.24.24-.37.53-.37.84v26.44c0,.31.13.61.37.84l.55.55c.24.24.53.36.84.36h4.04c.43,0,.77-.16.96-.44l.47-.51.07-.1c.11-.15.25-.36.25-.7v-5.14c0-.53-.17-1.06-.48-1.49l-.5-.66,6.05-1.45-.18.44c-.2.34-.33.76-.33,1.15v8.7c0,.26-.12.57-.29.74l-2.84,2.84c-.19.19-.45.29-.74.29h-8.96Z"/>
      <path class="cls-1" d="M53.61,37.24l.96-1.52c.31-.47.47-.95.47-1.42v-15.13c0-.54-.47-1-1.02-1h-.17c-1.24.09-2.51.52-3.74.93-1.22.41-2.37.8-3.53.88-.58.11-.96.55-.96,1.04v13.27c0,.53.14,1.01.41,1.42l.98,1.48-7.4.04.96-1.52c.27-.41.41-.89.41-1.42V2.94c0-.53-.14-1.01-.41-1.42l-.98-1.48,7.4-.04-.96,1.52c-.27.41-.41.89-.41,1.42v12.35c0,.58.47,1.05,1.05,1.05,1.33-.12,2.61-.54,3.85-.95s2.4-.8,3.57-.91h0c.5,0,.94-.44.94-.99V2.94c0-.49-.15-.95-.47-1.42l-.98-1.48,7.4-.04-.96,1.52c-.27.41-.41.89-.41,1.42v31.36c0,.53.14,1.01.41,1.42l.98,1.48-.02.04h-7.38Z"/>
      <circle class="cls-1" cx="12.01" cy="35.42" r="1.82"/>
      <circle class="cls-1" cx="66.05" cy="35.42" r="1.82"/>
    </g>
  </g>
</svg>