<?xml version="1.0" encoding="UTF-8"?>
<svg id="Capa_2" xmlns="http://www.w3.org/2000/svg" viewBox="0 0 323.77 62.69">
  <defs>
    <style>
      .cls-1 {
        fill: #fff;
      }

      .cls-2 {
        fill: #080809;
      }

      .cls-3 {
        fill: none;
      }

      .cls-4 {
        fill: #9d9da5;
      }
    </style>
  </defs>
  <g id="Capa_1-2" data-name="Capa_1">
    <g>
      <rect class="cls-3" width="323.77" height="62.69"/>
      <g>
        <g>
          <path class="cls-4" d="M295.7,57.28H7.14C3.2,57.28,0,54.08,0,50.14V12.55C0,8.61,3.2,5.41,7.14,5.41h288.56c3.94,0,7.14,3.2,7.14,7.14v37.59c0,3.94-3.2,7.14-7.14,7.14ZM7.14,6.91c-3.11,0-5.64,2.53-5.64,5.64v37.59c0,3.11,2.53,5.64,5.64,5.64h288.56c3.11,0,5.64-2.53,5.64-5.64V12.55c0-3.11-2.53-5.64-5.64-5.64H7.14Z"/>
          <g>
            <path class="cls-4" d="M19.32,45.84l-6.16-21.82h5.24l3.83,15.34h.2l3.92-15.34h5.18l3.92,15.26h.21l3.78-15.26h5.26l-6.18,21.82h-5.36l-4.09-14.74h-.3l-4.09,14.74h-5.37Z"/>
            <path class="cls-4" d="M53.45,33.05v12.78h-5.14v-29.09h5.03v10.98h.25c.51-1.23,1.3-2.2,2.38-2.92,1.07-.71,2.45-1.07,4.11-1.07,1.51,0,2.84.32,3.96.95s2,1.56,2.62,2.78.93,2.71.93,4.47v13.89h-5.14v-13.1c0-1.47-.38-2.61-1.13-3.43-.75-.82-1.81-1.23-3.16-1.23-.91,0-1.72.2-2.44.59-.71.39-1.27.96-1.68,1.7s-.6,1.63-.6,2.68Z"/>
            <path class="cls-4" d="M79.11,46.28c-1.38,0-2.63-.25-3.73-.75-1.1-.5-1.97-1.23-2.61-2.21-.64-.97-.96-2.18-.96-3.61,0-1.23.23-2.25.68-3.05.46-.8,1.08-1.45,1.86-1.93.79-.48,1.67-.85,2.66-1.1s2.01-.43,3.08-.55c1.28-.13,2.32-.25,3.11-.36.79-.11,1.38-.28,1.74-.51.37-.23.55-.59.55-1.09v-.08c0-1.07-.32-1.9-.95-2.49-.63-.59-1.55-.88-2.74-.88-1.26,0-2.26.28-2.99.82-.73.55-1.23,1.2-1.48,1.95l-4.8-.68c.38-1.33,1-2.44,1.88-3.33.87-.9,1.94-1.57,3.2-2.02,1.26-.45,2.65-.67,4.18-.67,1.05,0,2.1.12,3.14.37,1.04.25,1.99.65,2.86,1.21.86.56,1.55,1.33,2.08,2.29.53.97.79,2.17.79,3.62v14.6h-4.94v-3h-.17c-.31.61-.75,1.17-1.31,1.7s-1.27.95-2.12,1.26c-.85.32-1.84.48-2.98.48ZM80.44,42.5c1.03,0,1.93-.21,2.68-.62s1.34-.96,1.75-1.64.62-1.42.62-2.23v-2.57c-.16.13-.43.26-.82.37-.38.11-.81.21-1.29.3-.47.09-.94.16-1.41.23s-.87.12-1.21.17c-.77.1-1.45.27-2.06.51-.61.24-1.08.57-1.43.99-.35.42-.53.96-.53,1.63,0,.95.34,1.66,1.04,2.14s1.57.72,2.64.72Z"/>
            <path class="cls-4" d="M106.71,24.02v3.98h-12.54v-3.98h12.54ZM97.26,18.79h5.14v20.48c0,.69.11,1.22.32,1.58s.49.61.84.75c.35.13.74.2,1.17.2.32,0,.62-.02.89-.07.27-.05.48-.09.62-.13l.87,4.02c-.27.09-.67.2-1.17.31-.51.11-1.12.18-1.85.2-1.29.04-2.45-.16-3.48-.59s-1.85-1.1-2.45-2.01-.9-2.05-.89-3.41v-21.34Z"/>
            <path class="cls-1" d="M112.84,16.75h6.45l8.64,21.08h.34l8.64-21.08h6.45v29.09h-5.06v-19.99h-.27l-8.04,19.9h-3.78l-8.04-19.94h-.27v20.03h-5.06v-29.09Z"/>
            <path class="cls-1" d="M149.09,45.84v-29.09h5.27v24.67h12.81v4.42h-18.08Z"/>
            <path class="cls-4" d="M172.3,45.84v-21.82h4.92v3.71h.26c.45-1.25,1.21-2.23,2.26-2.93,1.05-.71,2.31-1.06,3.76-1.06s2.73.36,3.74,1.07c1.02.72,1.74,1.69,2.15,2.92h.23c.48-1.21,1.3-2.18,2.45-2.91,1.15-.72,2.52-1.09,4.1-1.09,2.01,0,3.65.63,4.92,1.9,1.27,1.27,1.9,3.12,1.9,5.55v14.64h-5.16v-13.85c0-1.35-.36-2.35-1.08-2.98s-1.6-.94-2.64-.94c-1.24,0-2.21.39-2.91,1.16-.7.77-1.04,1.77-1.04,3v13.61h-5.04v-14.06c0-1.13-.34-2.03-1.02-2.7-.68-.67-1.56-1.01-2.65-1.01-.74,0-1.41.19-2.02.56-.61.37-1.09.9-1.45,1.58-.36.68-.54,1.46-.54,2.37v13.27h-5.14Z"/>
            <path class="cls-4" d="M217.73,46.26c-2.13,0-3.98-.47-5.54-1.41s-2.77-2.25-3.63-3.93c-.86-1.69-1.29-3.66-1.29-5.91s.43-4.23,1.29-5.92c.86-1.7,2.07-3.01,3.63-3.95s3.41-1.41,5.54-1.41,3.98.47,5.54,1.41,2.77,2.25,3.63,3.95,1.29,3.67,1.29,5.92-.43,4.22-1.29,5.91-2.07,3-3.63,3.93-3.41,1.41-5.54,1.41ZM217.76,42.15c1.16,0,2.12-.32,2.9-.96.78-.64,1.36-1.5,1.74-2.58.38-1.08.58-2.28.58-3.61s-.19-2.54-.58-3.63c-.38-1.08-.96-1.95-1.74-2.59s-1.74-.97-2.9-.97-2.17.32-2.95.97-1.36,1.51-1.75,2.59c-.38,1.08-.58,2.29-.58,3.63s.19,2.53.58,3.61c.38,1.08.97,1.94,1.75,2.58.78.64,1.76.96,2.95.96Z"/>
            <path class="cls-4" d="M240.62,46.22c-1.71,0-3.25-.44-4.6-1.32-1.35-.88-2.42-2.16-3.21-3.83-.79-1.68-1.18-3.71-1.18-6.11s.4-4.47,1.2-6.14c.8-1.67,1.88-2.94,3.25-3.79,1.36-.86,2.88-1.29,4.56-1.29,1.28,0,2.33.22,3.15.65s1.48.95,1.96,1.55c.48.6.86,1.17,1.12,1.7h.21v-10.88h5.16v29.09h-5.06v-3.44h-.31c-.26.53-.65,1.09-1.15,1.68s-1.17,1.1-1.99,1.51c-.82.42-1.86.62-3.11.62ZM242.06,42c1.09,0,2.02-.3,2.78-.89.77-.59,1.35-1.42,1.75-2.48.4-1.06.6-2.3.6-3.71s-.2-2.64-.59-3.68c-.39-1.04-.97-1.85-1.73-2.43-.76-.58-1.7-.87-2.81-.87s-2.1.3-2.87.9c-.77.6-1.34,1.42-1.73,2.47-.39,1.05-.58,2.25-.58,3.61s.2,2.58.59,3.64.98,1.9,1.75,2.51c.77.61,1.72.92,2.85.92Z"/>
            <path class="cls-4" d="M267.4,46.26c-2.19,0-4.07-.46-5.66-1.37s-2.81-2.21-3.66-3.89c-.85-1.68-1.28-3.66-1.28-5.94s.43-4.22,1.29-5.92c.86-1.7,2.06-3.03,3.6-3.98,1.54-.95,3.36-1.43,5.44-1.43,1.34,0,2.62.22,3.81.65,1.2.43,2.26,1.1,3.18,2,.92.9,1.65,2.04,2.18,3.43.53,1.39.8,3.04.8,4.95v1.58h-17.88v-3.47h12.96c0-.98-.22-1.86-.64-2.63s-1-1.38-1.74-1.83-1.61-.67-2.59-.67c-1.05,0-1.97.25-2.77.76-.79.51-1.41,1.17-1.85,1.99-.44.82-.67,1.72-.67,2.69v3.03c0,1.27.23,2.36.7,3.26s1.11,1.6,1.95,2.07c.83.48,1.81.72,2.93.72.75,0,1.42-.11,2.03-.32s1.13-.53,1.58-.94c.44-.42.78-.93,1.01-1.55l4.8.54c-.3,1.27-.88,2.38-1.73,3.32-.85.94-1.93,1.67-3.25,2.19-1.32.52-2.82.77-4.52.77Z"/>
            <path class="cls-4" d="M286.59,16.75v29.09h-5.14v-29.09h5.14Z"/>
          </g>
        </g>
        <g>
          <rect class="cls-1" x="295.28" y="0" width="28.48" height="22.1" rx="3.19" ry="3.19"/>
          <g>
            <path class="cls-2" d="M303.87,4.18v13.93h-3.37V4.18h3.37Z"/>
            <path class="cls-2" d="M309.76,18.11h-3.62l4.7-13.93h4.48l4.7,13.93h-3.62l-3.27-10.42h-.11l-3.27,10.42ZM309.27,12.63h7.57v2.56h-7.57v-2.56Z"/>
          </g>
        </g>
      </g>
    </g>
  </g>
</svg>