<?xml version="1.0" encoding="UTF-8"?>
<svg id="Capa_2" data-name="Capa 2" xmlns="http://www.w3.org/2000/svg" viewBox="0 0 20.37 18.94">
  <defs>
    <style>
      .cls-1 {
        fill: #fff;
        stroke-width: 0px;
      }
    </style>
  </defs>
  <g id="Capa_1-2" data-name="Capa 1">
    <path class="cls-1" d="M18.3,12.71h-.8v-2.01c0-.9-.73-1.63-1.63-1.63h-5.18v-2.85h.8c1.14,0,2.07-.93,2.07-2.07v-2.09c0-1.14-.93-2.07-2.07-2.07h-2.61c-1.14,0-2.06.93-2.06,2.07v2.09c0,1.14.93,2.07,2.06,2.07h.81v2.85h-5.17c-.91,0-1.64.73-1.64,1.63v2.01h-.8c-1.14,0-2.06.93-2.06,2.07v2.09c0,1.14.93,2.07,2.06,2.07h2.61c1.14,0,2.07-.93,2.07-2.07v-2.09c0-1.14-.93-2.07-2.07-2.07h-.81v-2.01c0-.35.29-.63.64-.63h11.35c.35,0,.63.28.63.63v2.01h-.81c-1.14,0-2.07.93-2.07,2.07v2.09c0,1.14.93,2.07,2.07,2.07h2.61c1.14,0,2.07-.93,2.07-2.07v-2.09c0-1.14-.93-2.07-2.07-2.07ZM7.81,4.16v-2.09c0-.59.48-1.07,1.06-1.07h2.61c.59,0,1.07.48,1.07,1.07v2.09c0,.59-.48,1.07-1.07,1.07h-2.61c-.59,0-1.06-.48-1.06-1.07ZM5.74,14.78v2.09c0,.59-.48,1.07-1.07,1.07h-2.61c-.59,0-1.06-.48-1.06-1.07v-2.09c0-.59.48-1.07,1.06-1.07h2.61c.59,0,1.07.48,1.07,1.07ZM19.37,16.87c0,.59-.48,1.07-1.07,1.07h-2.61c-.59,0-1.07-.48-1.07-1.07v-2.09c0-.59.48-1.07,1.07-1.07h2.61c.59,0,1.07.48,1.07,1.07v2.09Z"/>
  </g>
</svg>