<?xml version="1.0" encoding="UTF-8"?>
<svg id="Capa_2" data-name="Capa 2" xmlns="http://www.w3.org/2000/svg" viewBox="0 0 20.2 21.59">
  <defs>
    <style>
      .cls-1 {
        fill: #fff;
        stroke-width: 0px;
      }
    </style>
  </defs>
  <g id="Capa_1-2" data-name="Capa 1">
    <path class="cls-1" d="M17.73,16.66c-.27,0-.52.05-.76.13l-2.56-3.99c.43-.44.7-1.05.7-1.71,0-1.36-1.11-2.47-2.46-2.47-.27,0-.52.05-.76.13l-2.33-3.62c.59-.54.96-1.31.96-2.17,0-1.63-1.33-2.96-2.96-2.96s-2.96,1.33-2.96,2.96c0,.86.37,1.62.96,2.17l-2.33,3.63c-.24-.08-.49-.13-.75-.13-1.36,0-2.46,1.11-2.46,2.47s1.11,2.46,2.46,2.46,2.47-1.11,2.47-2.46c0-.73-.33-1.39-.84-1.84l2.29-3.57c.36.16.76.24,1.17.24s.81-.09,1.16-.24l2.29,3.57c-.51.45-.83,1.1-.83,1.83,0,.66.27,1.26.69,1.71l-2.56,3.99c-.24-.08-.49-.13-.75-.13-1.36,0-2.47,1.11-2.47,2.47s1.11,2.46,2.47,2.46,2.47-1.11,2.47-2.46c0-.73-.33-1.39-.84-1.84l2.52-3.92c.29.12.61.19.95.19s.65-.07.94-.19l2.52,3.92c-.51.45-.83,1.1-.83,1.83,0,1.36,1.11,2.46,2.46,2.46s2.47-1.11,2.47-2.46-1.11-2.47-2.47-2.47ZM2.46,12.56c-.81,0-1.46-.66-1.46-1.46s.66-1.47,1.46-1.47,1.47.66,1.47,1.47-.66,1.46-1.47,1.46ZM5.59,2.96c0-1.08.88-1.96,1.96-1.96s1.96.88,1.96,1.96-.88,1.96-1.96,1.96-1.96-.88-1.96-1.96ZM7.55,20.59c-.81,0-1.47-.66-1.47-1.46s.66-1.47,1.47-1.47,1.47.66,1.47,1.47-.66,1.46-1.47,1.46ZM11.18,11.09c0-.81.66-1.47,1.47-1.47s1.46.66,1.46,1.47-.66,1.46-1.46,1.46-1.47-.66-1.47-1.46ZM17.73,20.59c-.81,0-1.46-.66-1.46-1.46s.66-1.47,1.46-1.47,1.47.66,1.47,1.47-.66,1.46-1.47,1.46Z"/>
  </g>
</svg>