<?xml version="1.0" encoding="UTF-8"?>
<svg id="Capa_2" data-name="Capa 2" xmlns="http://www.w3.org/2000/svg" viewBox="0 0 20.33 20.33">
  <defs>
    <style>
      .cls-1 {
        fill: #fff;
        stroke-width: 0px;
      }
    </style>
  </defs>
  <g id="Capa_1-2" data-name="Capa 1">
    <g>
      <path class="cls-1" d="M19.83,19.33H1V.5c0-.28-.22-.5-.5-.5s-.5.22-.5.5v19.33c0,.28.22.5.5.5h19.33c.28,0,.5-.22.5-.5s-.22-.5-.5-.5Z"/>
      <path class="cls-1" d="M14.44,2.59c.5,0,.91-.41.91-.91s-.41-.91-.91-.91-.91.41-.91.91.41.91.91.91Z"/>
      <path class="cls-1" d="M10.17,8.05c.5,0,.91-.41.91-.91s-.41-.91-.91-.91-.91.41-.91.91.41.91.91.91Z"/>
      <circle class="cls-1" cx="4.4" cy="10.79" r=".91"/>
      <circle class="cls-1" cx="17.24" cy="8.96" r=".91"/>
      <path class="cls-1" d="M9.78,14.35c0,.51.41.91.91.91s.91-.41.91-.91-.41-.91-.91-.91-.91.41-.91.91Z"/>
      <path class="cls-1" d="M4.2,16.04c.1.12.24.18.38.18.12,0,.23-.04.32-.12l13.08-11.14c.21-.18.24-.5.06-.71-.18-.21-.5-.23-.71-.06L4.26,15.33c-.21.18-.24.5-.06.71Z"/>
    </g>
  </g>
</svg>