<?xml version="1.0" encoding="UTF-8"?>
<svg id="Capa_2" data-name="Capa 2" xmlns="http://www.w3.org/2000/svg" viewBox="0 0 20.33 20.33">
  <defs>
    <style>
      .cls-1 {
        fill: #fff;
        stroke-width: 0px;
      }
    </style>
  </defs>
  <g id="Capa_1-2" data-name="Capa 1">
    <g>
      <path class="cls-1" d="M10.26,14.53c-.51,0-.91.41-.91.91s.41.91.91.91.91-.41.91-.91-.41-.91-.91-.91Z"/>
      <circle class="cls-1" cx="3.53" cy="13.61" r=".91"/>
      <path class="cls-1" d="M13.93,10.17c-.5,0-.91.41-.91.91s.41.91.91.91.91-.41.91-.91-.41-.91-.91-.91Z"/>
      <path class="cls-1" d="M13.62,16.06c-.5,0-.91.41-.91.91s.41.91.91.91.91-.41.91-.91-.41-.91-.91-.91Z"/>
      <circle class="cls-1" cx="16.52" cy="8.49" r=".91"/>
      <path class="cls-1" d="M4.44,4.22c.5,0,.91-.41.91-.91s-.41-.91-.91-.91-.91.41-.91.91.41.91.91.91Z"/>
      <path class="cls-1" d="M9.75,4.22c.51,0,.91-.41.91-.91s-.41-.91-.91-.91-.91.41-.91.91.41.91.91.91Z"/>
      <path class="cls-1" d="M20.33,2.97V.5c0-.28-.22-.5-.5-.5H.5C.22,0,0,.22,0,.5v10.69h0v8.64c0,.28.22.5.5.5h19.33c.28,0,.5-.22.5-.5V2.97h0ZM12.88,6.47l6.45-2.74v12.93l-9.32-5.02,2.87-5.17ZM9.13,11.16l-3.21-1.73,5.47-2.32-2.25,4.05ZM19.33,2.64l-5.66,2.41,2.25-4.05h3.41v1.64ZM14.78,1l-2.6,4.69-7.38,3.14-3.79-2.04V1h13.78ZM1,7.92l2.61,1.41-2.61,1.11v-2.52ZM1,11.52l3.74-1.59,3.91,2.1-4.05,7.3H1v-7.81ZM5.74,19.33l3.79-6.82,9.8,5.28v1.54H5.74Z"/>
    </g>
  </g>
</svg>