<?xml version="1.0" encoding="UTF-8"?>
<svg id="Capa_2" xmlns="http://www.w3.org/2000/svg" viewBox="0 0 20.37 15.61">
  <defs>
    <style>
      .cls-1 {
        fill: #fff;
      }
    </style>
  </defs>
  <g id="Capa_1-2" data-name="Capa_1">
    <g>
      <path class="cls-1" d="M14.38,7.34c-.28,0-.5-.22-.5-.5V1H3.99v5.84c0,.28-.22.5-.5.5s-.5-.22-.5-.5V.5c0-.28.22-.5.5-.5h10.89c.28,0,.5.22.5.5v6.34c0,.28-.22.5-.5.5Z"/>
      <path class="cls-1" d="M.5,15.61c-.28,0-.5-.22-.5-.5V6.84c0-.28.22-.5.5-.5h5.98c.28,0,.5.22.5.5v4.51c0,.28-.22.5-.5.5s-.5-.22-.5-.5v-4.01H1v7.77c0,.28-.22.5-.5.5Z"/>
      <path class="cls-1" d="M8.93,15.61c-.28,0-.5-.22-.5-.5v-3.27h-3.91v3.27c0,.28-.22.5-.5.5s-.5-.22-.5-.5v-3.77c0-.28.22-.5.5-.5h4.91c.28,0,.5.22.5.5v3.77c0,.28-.22.5-.5.5Z"/>
      <path class="cls-1" d="M19.87,15.61c-.28,0-.5-.22-.5-.5v-3.27h-4v3.27c0,.28-.22.5-.5.5s-.5-.22-.5-.5v-3.77c0-.28.22-.5.5-.5h5c.28,0,.5.22.5.5v3.77c0,.28-.22.5-.5.5Z"/>
      <path class="cls-1" d="M11.38,15.61c-.28,0-.5-.22-.5-.5V6.84c0-.28.22-.5.5-.5h5.98c.28,0,.5.22.5.5v4.51c0,.28-.22.5-.5.5s-.5-.22-.5-.5v-4.01h-4.98v7.77c0,.28-.22.5-.5.5Z"/>
    </g>
  </g>
</svg>