<?xml version="1.0" encoding="UTF-8"?>
<svg id="Capa_2" xmlns="http://www.w3.org/2000/svg" viewBox="0 0 20.33 20.33">
  <defs>
    <style>
      .cls-1 {
        fill: #fff;
      }
    </style>
  </defs>
  <g id="Capa_1-2" data-name="Capa_1">
    <g>
      <path class="cls-1" d="M19.83,19.33H1V.5c0-.28-.22-.5-.5-.5s-.5.22-.5.5v19.33c0,.28.22.5.5.5h19.33c.28,0,.5-.22.5-.5s-.22-.5-.5-.5Z"/>
      <path class="cls-1" d="M9.99,15.38c2.11,0,4.23-.74,5.84-2.22,1.28-1.18,1.98-2.74,1.98-4.41s-.7-3.24-1.98-4.42c-2.13-1.96-5.59-1.96-7.71,0-.86.79-1.33,1.84-1.33,2.96s.47,2.17,1.33,2.96c1.43,1.32,3.75,1.31,5.18,0,.2-.19.22-.5.03-.71-.19-.2-.5-.21-.71-.03-1.05.97-2.77.97-3.83,0-.65-.6-1-1.38-1-2.22s.36-1.63,1-2.22c1.75-1.61,4.61-1.61,6.36,0,1.07.99,1.66,2.29,1.66,3.68s-.59,2.69-1.66,3.68c-2.84,2.62-7.47,2.62-10.32,0-.2-.18-.52-.17-.71.03-.19.2-.17.52.03.71,1.61,1.48,3.72,2.22,5.84,2.22Z"/>
    </g>
  </g>
</svg>