<?xml version="1.0" encoding="UTF-8"?>
<svg id="Capa_2" xmlns="http://www.w3.org/2000/svg" viewBox="0 0 20.13 19.25">
  <defs>
    <style>
      .cls-1 {
        fill: #fff;
      }
    </style>
  </defs>
  <g id="Capa_1-2" data-name="Capa_1">
    <path class="cls-1" d="M16.43,5.44h1.95c.5,0,.98-.22,1.3-.58.29-.32.45-.72.45-1.16v-1.96c0-.96-.78-1.74-1.75-1.74h-1.95c-.96,0-1.75.78-1.75,1.74v1.96c0,.27.06.51.17.74l-2.9,2.73c-.27-.16-.58-.26-.91-.26h-1.95c-.33,0-.64.1-.91.27l-2.9-2.73c.11-.23.17-.48.17-.74v-1.95c0-.96-.78-1.75-1.75-1.75h-1.95C.78,0,0,.78,0,1.75v1.95c0,.43.16.84.43,1.14.32.39.8.61,1.32.61h1.95c.33,0,.64-.1.91-.27l2.9,2.73c-.11.23-.17.48-.17.74v.48h-1.89v-.48c0-.96-.78-1.75-1.75-1.75h-1.95c-.96,0-1.75.78-1.75,1.75v1.95c0,.96.78,1.75,1.75,1.75h1.95c.96,0,1.75-.78,1.75-1.75v-.48h1.89v.48c0,.27.06.51.17.74l-2.91,2.73c-.27-.16-.58-.26-.9-.26h-1.95c-.5,0-.98.22-1.3.58-.29.32-.45.72-.45,1.16v1.96c0,.96.78,1.74,1.75,1.74h1.95c.96,0,1.75-.78,1.75-1.74v-1.96c0-.27-.06-.51-.17-.74l2.9-2.73c.27.17.58.27.91.27h1.95c.34,0,.65-.1.91-.26l2.9,2.73c-.11.23-.17.48-.17.74v1.95c0,.96.78,1.75,1.75,1.75h1.95c.96,0,1.75-.78,1.75-1.75v-1.95c0-.43-.16-.84-.43-1.14-.32-.39-.8-.61-1.32-.61h-1.95c-.33,0-.64.1-.91.27l-2.9-2.73c.11-.23.17-.47.17-.74v-.48h1.89v.48c0,.96.78,1.75,1.75,1.75h1.95c.96,0,1.75-.78,1.75-1.75v-1.95c0-.96-.78-1.75-1.75-1.75h-1.95c-.96,0-1.75.78-1.75,1.75v.48h-1.89v-.48c0-.27-.06-.51-.17-.74l2.9-2.73c.27.16.58.26.91.26ZM4.45,10.6c0,.42-.33.75-.75.75h-1.95c-.41,0-.75-.34-.75-.75v-1.95c0-.41.34-.75.75-.75h1.95c.41,0,.75.34.75.75v1.95ZM15.68,8.65c0-.42.33-.75.75-.75h1.95c.41,0,.75.34.75.75v1.95c0,.41-.34.75-.75.75h-1.95c-.41,0-.75-.34-.75-.75v-1.95ZM15.68,1.74c0-.41.34-.74.75-.74h1.95c.41,0,.75.33.75.74v1.96c0,.18-.06.35-.19.49-.14.16-.34.25-.55.25h-1.95c-.22,0-.42-.09-.56-.26-.12-.13-.18-.29-.18-.48v-1.96ZM1.75,4.45c-.22,0-.42-.09-.56-.27-.12-.13-.18-.3-.18-.48v-1.95c0-.41.34-.75.75-.75h1.95c.41,0,.75.34.75.75v1.95c0,.18-.07.35-.2.5-.13.16-.33.25-.55.25h-1.95ZM4.45,17.51c0,.41-.33.74-.75.74h-1.95c-.41,0-.75-.33-.75-.74v-1.96c0-.18.06-.35.19-.49.14-.16.34-.25.56-.25h1.95c.22,0,.42.09.56.26.12.13.18.29.18.48v1.96ZM9.09,11.35c-.21,0-.42-.09-.56-.27-.12-.13-.18-.29-.18-.48v-1.95c0-.18.07-.35.2-.5.13-.16.33-.25.55-.25h1.95c.41,0,.75.34.75.75v1.95c0,.41-.34.75-.75.75h-1.95ZM18.38,14.8c.21,0,.42.09.56.27.12.13.18.3.18.48v1.95c0,.41-.34.75-.75.75h-1.95c-.41,0-.75-.34-.75-.75v-1.95c0-.18.07-.35.2-.5.13-.16.33-.25.55-.25h1.95Z"/>
  </g>
</svg>