<?xml version="1.0" encoding="UTF-8"?>
<svg id="Capa_2" xmlns="http://www.w3.org/2000/svg" viewBox="0 0 20.33 20.33">
  <defs>
    <style>
      .cls-1 {
        fill: #fff;
      }
    </style>
  </defs>
  <g id="Capa_1-2" data-name="Capa_1">
    <g>
      <path class="cls-1" d="M19.83,20.33H.5c-.28,0-.5-.22-.5-.5V.5C0,.22.22,0,.5,0s.5.22.5.5v18.83h18.83c.28,0,.5.22.5.5s-.22.5-.5.5Z"/>
      <circle class="cls-1" cx="11.51" cy="14.01" r=".91"/>
      <circle class="cls-1" cx="15.87" cy="10.63" r=".91"/>
      <circle class="cls-1" cx="13.3" cy="17.19" r=".91"/>
      <circle class="cls-1" cx="14.38" cy="13.82" r=".91"/>
      <circle class="cls-1" cx="17.51" cy="12.91" r=".91"/>
      <circle class="cls-1" cx="16.8" cy="16" r=".91"/>
      <circle class="cls-1" cx="12.94" cy="11.08" r=".91"/>
      <path class="cls-1" d="M7.97,5.36h-1.4c-.28,0-.5-.22-.5-.5s.22-.5.5-.5h1.4c.28,0,.5.22.5.5s-.22.5-.5.5Z"/>
      <path class="cls-1" d="M9.46,7.66h-1.4c-.28,0-.5-.22-.5-.5s.22-.5.5-.5h1.4c.28,0,.5.22.5.5s-.22.5-.5.5Z"/>
      <path class="cls-1" d="M7.18,2.86h-1.4c-.28,0-.5-.22-.5-.5s.22-.5.5-.5h1.4c.28,0,.5.22.5.5s-.22.5-.5.5Z"/>
      <path class="cls-1" d="M5.26,7.66h-1.4c-.28,0-.5-.22-.5-.5s.22-.5.5-.5h1.4c.28,0,.5.22.5.5s-.22.5-.5.5Z"/>
      <path class="cls-1" d="M4.04,5.36h-1.4c-.28,0-.5-.22-.5-.5s.22-.5.5-.5h1.4c.28,0,.5.22.5.5s-.22.5-.5.5Z"/>
      <path class="cls-1" d="M10.87,3.8h-1.4c-.28,0-.5-.22-.5-.5s.22-.5.5-.5h1.4c.28,0,.5.22.5.5s-.22.5-.5.5Z"/>
    </g>
  </g>
</svg>