<?xml version="1.0" encoding="UTF-8"?>
<svg id="Capa_2" data-name="Capa 2" xmlns="http://www.w3.org/2000/svg" viewBox="0 0 20.33 20.33">
  <defs>
    <style>
      .cls-1 {
        fill: #fff;
        stroke-width: 0px;
      }
    </style>
  </defs>
  <g id="Capa_1-2" data-name="Capa 1">
    <g>
      <path class="cls-1" d="M19.83,19.33H1V.5c0-.28-.22-.5-.5-.5s-.5.22-.5.5v19.33c0,.28.22.5.5.5h19.33c.28,0,.5-.22.5-.5s-.22-.5-.5-.5Z"/>
      <path class="cls-1" d="M8.95,4.06c.51,0,.91-.41.91-.91s-.41-.91-.91-.91-.91.41-.91.91.41.91.91.91Z"/>
      <path class="cls-1" d="M16.17,5.89c.5,0,.91-.41.91-.91s-.41-.91-.91-.91-.91.41-.91.91.41.91.91.91Z"/>
      <path class="cls-1" d="M12.1,15.53c0,.51.41.91.91.91s.91-.41.91-.91-.41-.91-.91-.91-.91.41-.91.91Z"/>
      <path class="cls-1" d="M7.38,14.13c.5,0,.91-.41.91-.91s-.41-.91-.91-.91-.91.41-.91.91.41.91.91.91Z"/>
      <path class="cls-1" d="M18,8.69c.5,0,.91-.41.91-.91s-.41-.91-.91-.91-.91.41-.91.91.41.91.91.91Z"/>
      <path class="cls-1" d="M17.81,10.61c-.5,0-.91.41-.91.91s.41.91.91.91.91-.41.91-.91-.41-.91-.91-.91Z"/>
      <path class="cls-1" d="M14.15,3.07c.5,0,.91-.41.91-.91s-.41-.91-.91-.91-.91.41-.91.91.41.91.91.91Z"/>
      <circle class="cls-1" cx="4.88" cy="7.33" r=".91"/>
      <path class="cls-1" d="M3.54,11.53c.51,0,.91-.41.91-.91s-.41-.91-.91-.91-.91.41-.91.91.41.91.91.91Z"/>
      <path class="cls-1" d="M3.96,4.56h1.4c.28,0,.5-.22.5-.5s-.22-.5-.5-.5h-1.4c-.28,0-.5.22-.5.5s.22.5.5.5Z"/>
      <path class="cls-1" d="M11.26,5.91h1.4c.28,0,.5-.22.5-.5s-.22-.5-.5-.5h-1.4c-.28,0-.5.22-.5.5s.22.5.5.5Z"/>
      <path class="cls-1" d="M14.63,14.13c0,.28.22.5.5.5h1.4c.28,0,.5-.22.5-.5s-.22-.5-.5-.5h-1.4c-.28,0-.5.22-.5.5Z"/>
      <path class="cls-1" d="M3.26,13.46c-.28,0-.5.22-.5.5s.22.5.5.5h1.4c.28,0,.5-.22.5-.5s-.22-.5-.5-.5h-1.4Z"/>
    </g>
  </g>
</svg>