<?xml version="1.0" encoding="UTF-8"?>
<svg id="Capa_2" data-name="Capa 2" xmlns="http://www.w3.org/2000/svg" viewBox="0 0 20.33 20.33">
  <defs>
    <style>
      .cls-1 {
        fill: #fff;
        stroke-width: 0px;
      }
    </style>
  </defs>
  <g id="Capa_1-2" data-name="Capa 1">
    <g>
      <path class="cls-1" d="M15.96,2.33c.51,0,.91-.41.91-.91s-.41-.91-.91-.91-.91.41-.91.91.41.91.91.91Z"/>
      <path class="cls-1" d="M18.69,2.33c.51,0,.91-.41.91-.91s-.41-.91-.91-.91-.91.41-.91.91.41.91.91.91Z"/>
      <path class="cls-1" d="M13.23,2.33c.5,0,.91-.41.91-.91s-.41-.91-.91-.91-.91.41-.91.91.41.91.91.91Z"/>
      <path class="cls-1" d="M5.01,17.34c0,.5.41.91.91.91s.91-.41.91-.91-.41-.91-.91-.91-.91.41-.91.91Z"/>
      <path class="cls-1" d="M7.73,17.34c0,.5.41.91.91.91s.91-.41.91-.91-.41-.91-.91-.91-.91.41-.91.91Z"/>
      <circle class="cls-1" cx="3.19" cy="17.34" r=".91"/>
      <path class="cls-1" d="M19.83,19.33H1V.5c0-.28-.22-.5-.5-.5s-.5.22-.5.5v19.33c0,.28.22.5.5.5h19.33c.28,0,.5-.22.5-.5s-.22-.5-.5-.5Z"/>
      <path class="cls-1" d="M2.67,15.42c6.86,0,8.35-3.38,9.66-6.37,1.16-2.64,2.17-4.92,6.67-4.92.28,0,.5-.22.5-.5s-.22-.5-.5-.5c-5.16,0-6.39,2.81-7.59,5.52-1.31,2.97-2.54,5.77-8.75,5.77-.28,0-.5.22-.5.5s.22.5.5.5Z"/>
    </g>
  </g>
</svg>