<?xml version="1.0" encoding="UTF-8"?>
<svg id="Capa_2" xmlns="http://www.w3.org/2000/svg" viewBox="0 0 20.33 20.33">
  <defs>
    <style>
      .cls-1 {
        fill: #fff;
      }
    </style>
  </defs>
  <g id="Capa_1-2" data-name="Capa_1">
    <g>
      <path class="cls-1" d="M19.83,19.33H1V.5c0-.28-.22-.5-.5-.5s-.5.22-.5.5v19.33c0,.28.22.5.5.5h19.33c.28,0,.5-.22.5-.5s-.22-.5-.5-.5Z"/>
      <path class="cls-1" d="M8.98,12.86c0,.5.41.91.91.91s.91-.41.91-.91-.41-.91-.91-.91-.91.41-.91.91Z"/>
      <circle class="cls-1" cx="18.38" cy="8.87" r=".91"/>
      <path class="cls-1" d="M13.22,16.25c0,.5.41.91.91.91s.91-.41.91-.91-.41-.91-.91-.91-.91.41-.91.91Z"/>
      <circle class="cls-1" cx="11.24" cy="15.17" r=".91"/>
      <path class="cls-1" d="M18.16,13.31c.5,0,.91-.41.91-.91s-.41-.91-.91-.91-.91.41-.91.91.41.91.91.91Z"/>
      <path class="cls-1" d="M16.85,15.86c.51,0,.91-.41.91-.91s-.41-.91-.91-.91-.91.41-.91.91.41.91.91.91Z"/>
      <path class="cls-1" d="M9.69,10.32c0-.5-.41-.91-.91-.91s-.91.41-.91.91.41.91.91.91.91-.41.91-.91Z"/>
      <path class="cls-1" d="M11.12,4.71h1.4c.28,0,.5-.22.5-.5s-.22-.5-.5-.5h-1.4c-.28,0-.5.22-.5.5s.22.5.5.5Z"/>
      <path class="cls-1" d="M12.52,9.5c-.28,0-.5.22-.5.5s.22.5.5.5h1.4c.28,0,.5-.22.5-.5s-.22-.5-.5-.5h-1.4Z"/>
      <path class="cls-1" d="M7.79,2.71h1.4c.28,0,.5-.22.5-.5s-.22-.5-.5-.5h-1.4c-.28,0-.5.22-.5.5s.22.5.5.5Z"/>
      <path class="cls-1" d="M3.44,6.49h1.4c.28,0,.5-.22.5-.5s-.22-.5-.5-.5h-1.4c-.28,0-.5.22-.5.5s.22.5.5.5Z"/>
      <path class="cls-1" d="M2.97,9.08h1.4c.28,0,.5-.22.5-.5s-.22-.5-.5-.5h-1.4c-.28,0-.5.22-.5.5s.22.5.5.5Z"/>
      <path class="cls-1" d="M4.68,4.16h1.4c.28,0,.5-.22.5-.5s-.22-.5-.5-.5h-1.4c-.28,0-.5.22-.5.5s.22.5.5.5Z"/>
      <path class="cls-1" d="M11.65,6.97c0,.28.22.5.5.5h1.4c.28,0,.5-.22.5-.5s-.22-.5-.5-.5h-1.4c-.28,0-.5.22-.5.5Z"/>
    </g>
  </g>
</svg>