<?xml version="1.0" encoding="UTF-8"?>
<svg id="Capa_2" data-name="Capa 2" xmlns="http://www.w3.org/2000/svg" viewBox="0 0 21.2 20.28">
  <defs>
    <style>
      .cls-1 {
        fill: #fff;
        stroke-width: 0px;
      }
    </style>
  </defs>
  <g id="Capa_1-2" data-name="Capa 1">
    <path class="cls-1" d="M19.38,7.29h-2.06c-.35,0-.68.11-.96.29l-3.1-2.91c.12-.24.19-.51.19-.78V1.82c0-1-.82-1.82-1.82-1.82h-2.06c-1,0-1.82.82-1.82,1.82v2.06c0,.28.07.55.19.79l-3.09,2.91c-.28-.18-.61-.29-.96-.29H1.81c-1,0-1.81.82-1.81,1.82v2.06c0,1,.81,1.82,1.81,1.82h2.07c.35,0,.68-.11.96-.29l3.09,2.91c-.12.24-.19.5-.19.79v2.07c0,1,.82,1.81,1.82,1.81h2.06c1,0,1.82-.81,1.82-1.81v-2.07c0-.28-.07-.55-.19-.79l3.1-2.91c.28.18.61.29.96.29h2.06c1,0,1.82-.82,1.82-1.82v-2.06c0-1-.82-1.82-1.82-1.82ZM11.62,14.59h-2.06c-.35,0-.68.11-.96.28l-3.1-2.92c.12-.24.18-.5.18-.78v-.53h2.06v.53c0,1,.82,1.82,1.82,1.82h2.06c1,0,1.82-.82,1.82-1.82v-.53h2.05v.53c0,.28.07.55.19.79l-3.1,2.92c-.28-.18-.61-.28-.96-.28ZM9.56,5.7h2.06c.35,0,.68-.11.96-.29l3.1,2.91c-.12.24-.19.51-.19.78v.53h-2.05v-.53c0-1-.82-1.82-1.82-1.82h-2.06c-1,0-1.82.82-1.82,1.82v.53h-2.06v-.53c0-.27-.07-.54-.18-.78l3.1-2.92c.28.18.61.29.96.29ZM8.75,9.11c0-.45.37-.82.82-.82h2.06c.45,0,.82.37.82.82v1.03s0,0,0,0,0,0,0,0v1.03c0,.46-.36.82-.82.82h-2.06c-.45,0-.82-.37-.82-.82v-2.06ZM8.75,1.82c0-.45.37-.82.82-.82h2.06c.45,0,.82.37.82.82v2.06c0,.2-.07.38-.22.54-.15.17-.37.28-.6.28h-2.06c-.24,0-.45-.1-.62-.29-.13-.14-.2-.33-.2-.53V1.82ZM1.81,11.99c-.45,0-.81-.36-.81-.82v-2.06c0-.45.36-.82.81-.82h2.07c.24,0,.46.1.61.29.13.15.2.34.2.53v2.06c0,.2-.07.38-.21.54-.15.17-.37.28-.6.28H1.81ZM12.44,18.47c0,.45-.37.81-.82.81h-2.06c-.45,0-.82-.36-.82-.81v-2.07c0-.2.07-.38.21-.54.15-.17.37-.27.61-.27h2.06c.24,0,.46.09.62.29.13.15.2.32.2.52v2.07ZM20.2,11.17c0,.45-.37.82-.82.82h-2.06c-.24,0-.46-.1-.62-.29-.13-.15-.2-.32-.2-.53v-2.06c0-.2.07-.38.22-.54.14-.17.36-.28.6-.28h2.06c.45,0,.82.37.82.82v2.06Z"/>
  </g>
</svg>