<?xml version="1.0" encoding="UTF-8"?>
<svg id="Capa_2" data-name="Capa 2" xmlns="http://www.w3.org/2000/svg" viewBox="0 0 20.33 20.33">
  <defs>
    <style>
      .cls-1 {
        fill: #fff;
        stroke-width: 0px;
      }
    </style>
  </defs>
  <g id="Capa_1-2" data-name="Capa 1">
    <g>
      <path class="cls-1" d="M19.83,19.33H1V.5c0-.28-.22-.5-.5-.5s-.5.22-.5.5v19.33c0,.28.22.5.5.5h19.33c.28,0,.5-.22.5-.5s-.22-.5-.5-.5Z"/>
      <path class="cls-1" d="M4.43,2.93c.5,0,.91-.41.91-.91s-.41-.91-.91-.91-.91.41-.91.91.41.91.91.91Z"/>
      <path class="cls-1" d="M12.6,8.66c.51,0,.91-.41.91-.91s-.41-.91-.91-.91-.91.41-.91.91.41.91.91.91Z"/>
      <circle class="cls-1" cx="13.12" cy="16.35" r=".91"/>
      <path class="cls-1" d="M17.11,7.19c.5,0,.91-.41.91-.91s-.41-.91-.91-.91-.91.41-.91.91.41.91.91.91Z"/>
      <path class="cls-1" d="M15.89,14.52c0,.51.41.91.91.91s.91-.41.91-.91-.41-.91-.91-.91-.91.41-.91.91Z"/>
      <circle class="cls-1" cx="13.34" cy="3.59" r=".91"/>
      <path class="cls-1" d="M4.03,10.05c-.5,0-.91.41-.91.91s.41.91.91.91.91-.41.91-.91-.41-.91-.91-.91Z"/>
      <path class="cls-1" d="M5.34,15.88c.51,0,.91-.41.91-.91s-.41-.91-.91-.91-.91.41-.91.91.41.91.91.91Z"/>
      <path class="cls-1" d="M3.11,7.21h4.83v10.05c0,.28.22.5.5.5s.5-.22.5-.5v-5.45h9.89c.28,0,.5-.22.5-.5s-.22-.5-.5-.5h-9.89V1.53c0-.28-.22-.5-.5-.5s-.5.22-.5.5v4.68H3.11c-.28,0-.5.22-.5.5s.22.5.5.5Z"/>
    </g>
  </g>
</svg>