<?xml version="1.0" encoding="UTF-8"?>
<svg id="Capa_2" data-name="Capa 2" xmlns="http://www.w3.org/2000/svg" viewBox="0 0 20.33 20.33">
  <defs>
    <style>
      .cls-1 {
        fill: #fff;
        stroke-width: 0px;
      }
    </style>
  </defs>
  <g id="Capa_1-2" data-name="Capa 1">
    <g>
      <path class="cls-1" d="M19.83,19.33H1V.5c0-.28-.22-.5-.5-.5s-.5.22-.5.5v19.33c0,.28.22.5.5.5h19.33c.28,0,.5-.22.5-.5s-.22-.5-.5-.5Z"/>
      <path class="cls-1" d="M3.61,4.55c2-.34,4-.05,5.39.36l1.23,1.75c.1.14.25.21.41.21.1,0,.2-.03.29-.09.23-.16.28-.47.12-.7l-.29-.41c1.8,1.21,2.88,2.78,3.22,4.6l-1.21-1.73c-.16-.23-.47-.28-.7-.12-.23.16-.28.47-.12.7l1.72,2.46c.1.14.25.21.41.21,0,0,0,0,.02,0-.05,1.69-.64,3.54-1.82,5.49-.14.24-.07.54.17.69.08.05.17.07.26.07.17,0,.33-.09.43-.24,3.26-5.42,2.52-10.19-2.03-13.09-.34-.22-.86-.44-1.49-.65l-.3-.42c-.16-.23-.47-.28-.7-.12-.08.06-.14.14-.17.23-1.46-.32-3.25-.48-5.01-.18-.27.05-.46.3-.41.58.05.27.31.46.58.41Z"/>
      <path class="cls-1" d="M17.11,16.49c.1.14.25.21.41.21.1,0,.2-.03.29-.09.23-.16.28-.47.12-.7l-1.72-2.46c-.16-.23-.47-.28-.7-.12-.23.16-.28.47-.12.7l1.72,2.46Z"/>
      <path class="cls-1" d="M6.78,1.75c.1.14.25.21.41.21.1,0,.2-.03.29-.09.23-.16.28-.47.12-.7l-.45-.64c-.16-.23-.47-.28-.7-.12-.23.16-.28.47-.12.7l.45.64Z"/>
    </g>
  </g>
</svg>