<?xml version="1.0" encoding="UTF-8"?>
<svg id="Capa_2" xmlns="http://www.w3.org/2000/svg" viewBox="0 0 20.33 20.33">
  <defs>
    <style>
      .cls-1 {
        fill: #fff;
      }
    </style>
  </defs>
  <g id="Capa_1-2" data-name="Capa_1">
    <g>
      <path class="cls-1" d="M19.83,19.33H1V.5c0-.28-.22-.5-.5-.5s-.5.22-.5.5v19.33c0,.28.22.5.5.5h19.33c.28,0,.5-.22.5-.5s-.22-.5-.5-.5Z"/>
      <path class="cls-1" d="M10.59,14.01c0,.5.41.91.91.91s.91-.41.91-.91-.41-.91-.91-.91-.91.41-.91.91Z"/>
      <circle class="cls-1" cx="15.87" cy="10.63" r=".91"/>
      <path class="cls-1" d="M13.3,18.1c.51,0,.91-.41.91-.91s-.41-.91-.91-.91-.91.41-.91.91.41.91.91.91Z"/>
      <path class="cls-1" d="M15.3,13.82c0-.51-.41-.91-.91-.91s-.91.41-.91.91.41.91.91.91.91-.41.91-.91Z"/>
      <circle class="cls-1" cx="17.51" cy="12.91" r=".91"/>
      <path class="cls-1" d="M16.8,16.91c.5,0,.91-.41.91-.91s-.41-.91-.91-.91-.91.41-.91.91.41.91.91.91Z"/>
      <circle class="cls-1" cx="12.94" cy="11.08" r=".91"/>
      <path class="cls-1" d="M6.07,4.86c0,.28.22.5.5.5h1.4c.28,0,.5-.22.5-.5s-.22-.5-.5-.5h-1.4c-.28,0-.5.22-.5.5Z"/>
      <path class="cls-1" d="M9.46,7.66c.28,0,.5-.22.5-.5s-.22-.5-.5-.5h-1.4c-.28,0-.5.22-.5.5s.22.5.5.5h1.4Z"/>
      <path class="cls-1" d="M5.78,2.86h1.4c.28,0,.5-.22.5-.5s-.22-.5-.5-.5h-1.4c-.28,0-.5.22-.5.5s.22.5.5.5Z"/>
      <path class="cls-1" d="M3.36,7.16c0,.28.22.5.5.5h1.4c.28,0,.5-.22.5-.5s-.22-.5-.5-.5h-1.4c-.28,0-.5.22-.5.5Z"/>
      <path class="cls-1" d="M2.64,5.36h1.4c.28,0,.5-.22.5-.5s-.22-.5-.5-.5h-1.4c-.28,0-.5.22-.5.5s.22.5.5.5Z"/>
      <path class="cls-1" d="M9.47,3.8h1.4c.28,0,.5-.22.5-.5s-.22-.5-.5-.5h-1.4c-.28,0-.5.22-.5.5s.22.5.5.5Z"/>
      <path class="cls-1" d="M4.16,14.76c.1.12.24.18.38.18.12,0,.23-.04.32-.12L17.95,3.68c.21-.18.24-.5.06-.71-.18-.21-.5-.24-.71-.06L4.22,14.06c-.21.18-.24.5-.06.71Z"/>
    </g>
  </g>
</svg>