<?xml version="1.0" encoding="UTF-8"?>
<svg id="Capa_2" xmlns="http://www.w3.org/2000/svg" viewBox="0 0 20.33 20.33">
  <defs>
    <style>
      .cls-1 {
        fill: #fff;
      }
    </style>
  </defs>
  <g id="Capa_1-2" data-name="Capa_1">
    <g>
      <path class="cls-1" d="M19.83,19.33H1V.5c0-.28-.22-.5-.5-.5s-.5.22-.5.5v19.33c0,.28.22.5.5.5h19.33c.28,0,.5-.22.5-.5s-.22-.5-.5-.5Z"/>
      <path class="cls-1" d="M4.2,16.04c.1.12.24.18.38.18.12,0,.23-.04.32-.12l13.08-11.14c.21-.18.24-.5.06-.71-.18-.21-.5-.23-.71-.06L4.26,15.33c-.21.18-.24.5-.06.71Z"/>
      <path class="cls-1" d="M8.87,8.75c.1.12.24.18.38.18.12,0,.23-.04.32-.12l2.28-1.95c.21-.18.24-.5.06-.71-.18-.21-.5-.23-.71-.06l-2.28,1.95c-.21.18-.24.5-.06.71Z"/>
      <path class="cls-1" d="M13.82,5.03c.12,0,.23-.04.32-.12l1.83-1.56c.21-.18.24-.5.06-.71-.18-.21-.5-.24-.71-.06l-1.83,1.56c-.21.18-.24.5-.06.71.1.12.24.18.38.18Z"/>
      <path class="cls-1" d="M4.3,12.64c.1.12.24.18.38.18.12,0,.23-.04.32-.12l2.28-1.95c.21-.18.24-.5.06-.71-.18-.21-.5-.23-.71-.06l-2.28,1.95c-.21.18-.24.5-.06.71Z"/>
      <path class="cls-1" d="M10.24,13.66l-2.28,1.94c-.21.18-.24.5-.06.71.1.12.24.18.38.18.12,0,.23-.04.32-.12l2.28-1.94c.21-.18.24-.5.06-.71s-.5-.24-.71-.06Z"/>
      <path class="cls-1" d="M15.52,9.83c-.18-.21-.5-.24-.71-.06l-2.28,1.94c-.21.18-.24.5-.06.71.1.12.24.18.38.18.12,0,.23-.04.32-.12l2.28-1.94c.21-.18.24-.5.06-.71Z"/>
      <path class="cls-1" d="M17.04,8.53c.1.12.24.18.38.18.12,0,.23-.04.32-.12l1.84-1.56c.21-.18.24-.49.06-.71s-.49-.24-.71-.06l-1.84,1.56c-.21.18-.24.49-.06.71Z"/>
      <circle class="cls-1" cx="4.6" cy="5.83" r=".91"/>
      <circle class="cls-1" cx="5.51" cy="2.28" r=".91"/>
      <circle class="cls-1" cx="8.92" cy="2.6" r=".91"/>
      <path class="cls-1" d="M17.57,13.12c-.28,0-.5.22-.5.5s.22.5.5.5h1.4c.28,0,.5-.22.5-.5s-.22-.5-.5-.5h-1.4Z"/>
      <path class="cls-1" d="M14.18,15.9c-.28,0-.5.22-.5.5s.22.5.5.5h1.4c.28,0,.5-.22.5-.5s-.22-.5-.5-.5h-1.4Z"/>
    </g>
  </g>
</svg>