<?xml version="1.0" encoding="UTF-8"?>
<svg id="Capa_2" data-name="Capa 2" xmlns="http://www.w3.org/2000/svg" viewBox="0 0 20.41 18.28">
  <defs>
    <style>
      .cls-1 {
        fill: #fff;
        stroke-width: 0px;
      }
    </style>
  </defs>
  <g id="Capa_1-2" data-name="Capa 1">
    <path class="cls-1" d="M17.2,11.87c-.4,0-.78.08-1.13.22l-3.37-5.25c.84-.71,1.39-1.77,1.39-2.95,0-2.14-1.75-3.89-3.89-3.89s-3.89,1.74-3.89,3.89c0,1.18.54,2.23,1.38,2.94l-3.37,5.25c-.35-.13-.72-.21-1.12-.21-1.77,0-3.2,1.44-3.2,3.2s1.44,3.2,3.2,3.2,3.2-1.44,3.2-3.2c0-1.01-.48-1.91-1.22-2.49l3.34-5.2c.51.25,1.07.4,1.68.4s1.16-.15,1.66-.39l3.34,5.2c-.73.59-1.21,1.48-1.21,2.48,0,1.77,1.44,3.2,3.2,3.2s3.2-1.44,3.2-3.2-1.44-3.2-3.2-3.2ZM3.2,17.28c-1.21,0-2.2-.99-2.2-2.2s.99-2.2,2.2-2.2,2.2.99,2.2,2.2-.99,2.2-2.2,2.2ZM7.31,3.89c0-1.59,1.3-2.89,2.89-2.89s2.89,1.3,2.89,2.89-1.3,2.89-2.89,2.89-2.89-1.3-2.89-2.89ZM17.2,17.28c-1.21,0-2.2-.99-2.2-2.2s.99-2.2,2.2-2.2,2.2.99,2.2,2.2-.99,2.2-2.2,2.2Z"/>
  </g>
</svg>