<?xml version="1.0" encoding="UTF-8"?>
<svg id="Capa_2" data-name="Capa 2" xmlns="http://www.w3.org/2000/svg" viewBox="0 0 20.33 17.86">
  <defs>
    <style>
      .cls-1 {
        fill: #fff;
        stroke-width: 0px;
      }
    </style>
  </defs>
  <g id="Capa_1-2" data-name="Capa 1">
    <path class="cls-1" d="M17.26,11.74c-.39,0-.76.08-1.11.21l-4.1-5.07c1.08-.65,1.81-1.82,1.81-3.17,0-2.04-1.66-3.71-3.71-3.71s-3.71,1.66-3.71,3.71c0,1.35.73,2.51,1.8,3.17l-4.1,5.07c-.34-.13-.71-.21-1.09-.21-1.69,0-3.06,1.37-3.06,3.06s1.37,3.06,3.06,3.06,3.06-1.37,3.06-3.06c0-.94-.43-1.77-1.1-2.33l4.19-5.18c.15.04.3.07.45.09,0,.02,0,.03,0,.05v4.37c-1.45.24-2.55,1.5-2.55,3.01,0,1.69,1.37,3.06,3.06,3.06s3.06-1.37,3.06-3.06c0-1.52-1.11-2.77-2.57-3.01v-4.37s0-.03,0-.04c.15-.02.31-.05.45-.09l4.2,5.19c-.66.56-1.09,1.39-1.09,2.32,0,1.69,1.37,3.06,3.06,3.06s3.06-1.37,3.06-3.06-1.37-3.06-3.06-3.06ZM3.06,16.86c-1.14,0-2.06-.92-2.06-2.06s.92-2.06,2.06-2.06,2.06.92,2.06,2.06-.92,2.06-2.06,2.06ZM7.45,3.71c0-1.49,1.21-2.71,2.71-2.71s2.71,1.21,2.71,2.71-1.21,2.71-2.71,2.71-2.71-1.21-2.71-2.71ZM12.22,14.8c0,1.14-.92,2.06-2.06,2.06s-2.06-.92-2.06-2.06.92-2.06,2.06-2.06,2.06.92,2.06,2.06ZM17.26,16.86c-1.14,0-2.06-.92-2.06-2.06s.92-2.06,2.06-2.06,2.06.92,2.06,2.06-.92,2.06-2.06,2.06Z"/>
  </g>
</svg>