<?xml version="1.0" encoding="UTF-8"?>
<svg id="Capa_2" xmlns="http://www.w3.org/2000/svg" viewBox="0 0 20.33 20.33">
  <defs>
    <style>
      .cls-1 {
        fill: #fff;
      }
    </style>
  </defs>
  <g id="Capa_1-2" data-name="Capa_1">
    <g>
      <path class="cls-1" d="M19.83,19.33H1V.5c0-.28-.22-.5-.5-.5s-.5.22-.5.5v19.33c0,.28.22.5.5.5h19.33c.28,0,.5-.22.5-.5s-.22-.5-.5-.5Z"/>
      <path class="cls-1" d="M4.5,13.82c2.95,0,3.74-3.97,4.38-7.17.36-1.79.8-4.01,1.47-4.01.72,0,1.26,2.35,1.69,4.24.75,3.25,1.6,6.94,4.24,6.94.28,0,.5-.22.5-.5s-.22-.5-.5-.5c-1.84,0-2.59-3.28-3.26-6.17-.62-2.69-1.15-5.01-2.67-5.01s-1.92,2.13-2.45,4.82c-.6,2.98-1.27,6.36-3.4,6.36-.28,0-.5.22-.5.5s.22.5.5.5Z"/>
      <path class="cls-1" d="M6.75,16.43c0,.5.41.91.91.91s.91-.41.91-.91-.41-.91-.91-.91-.91.41-.91.91Z"/>
      <path class="cls-1" d="M9.48,16.43c0,.5.41.91.91.91s.91-.41.91-.91-.41-.91-.91-.91-.91.41-.91.91Z"/>
      <path class="cls-1" d="M4.02,16.43c0,.5.41.91.91.91s.91-.41.91-.91-.41-.91-.91-.91-.91.41-.91.91Z"/>
      <path class="cls-1" d="M12.21,16.43c0,.5.41.91.91.91s.91-.41.91-.91-.41-.91-.91-.91-.91.41-.91.91Z"/>
      <path class="cls-1" d="M15.85,15.52c-.5,0-.91.41-.91.91s.41.91.91.91.91-.41.91-.91-.41-.91-.91-.91Z"/>
    </g>
  </g>
</svg>