<?xml version="1.0" encoding="UTF-8"?>
<svg id="Capa_2" data-name="Capa 2" xmlns="http://www.w3.org/2000/svg" viewBox="0 0 20.33 20.33">
  <defs>
    <style>
      .cls-1 {
        fill: #fff;
        stroke-width: 0px;
      }
    </style>
  </defs>
  <g id="Capa_1-2" data-name="Capa 1">
    <g>
      <path class="cls-1" d="M19.83,19.33H1V.5c0-.28-.22-.5-.5-.5s-.5.22-.5.5v19.33c0,.28.22.5.5.5h19.33c.28,0,.5-.22.5-.5s-.22-.5-.5-.5Z"/>
      <path class="cls-1" d="M3.72,17.46c.06,0,.12-.01.18-.03,3.87-1.47,6.75-3.89,8.5-6.95,2.36.73,4.41,2.34,5.92,4.68.1.15.26.23.42.23.09,0,.19-.03.27-.08.23-.15.3-.46.15-.69-1.6-2.48-3.77-4.2-6.28-5.03,1.25-2.6,1.73-5.62,1.33-8.9-.03-.28-.29-.48-.56-.44-.27.03-.47.28-.44.56.89,7.3-2.63,13.02-9.68,15.69-.26.1-.39.39-.29.65.08.2.27.32.47.32Z"/>
      <circle class="cls-1" cx="9.56" cy="4.13" r=".91"/>
      <path class="cls-1" d="M17.63,7.73c.51,0,.91-.41.91-.91s-.41-.91-.91-.91-.91.41-.91.91.41.91.91.91Z"/>
      <path class="cls-1" d="M9.94,16.96c0,.51.41.91.91.91s.91-.41.91-.91-.41-.91-.91-.91-.91.41-.91.91Z"/>
      <path class="cls-1" d="M7.13,10.68c.51,0,.91-.41.91-.91s-.41-.91-.91-.91-.91.41-.91.91.41.91.91.91Z"/>
      <circle class="cls-1" cx="14.12" cy="14.59" r=".91"/>
      <path class="cls-1" d="M4.63,6.81c.51,0,.91-.41.91-.91s-.41-.91-.91-.91-.91.41-.91.91.41.91.91.91Z"/>
    </g>
  </g>
</svg>