<?xml version="1.0" encoding="UTF-8"?>
<svg id="Capa_2" data-name="Capa 2" xmlns="http://www.w3.org/2000/svg" viewBox="0 0 20.33 20.33">
  <defs>
    <style>
      .cls-1 {
        fill: #fff;
        stroke-width: 0px;
      }
    </style>
  </defs>
  <g id="Capa_1-2" data-name="Capa 1">
    <g>
      <path class="cls-1" d="M19.83,19.33H1V.5c0-.28-.22-.5-.5-.5s-.5.22-.5.5v19.33c0,.28.22.5.5.5h19.33c.28,0,.5-.22.5-.5s-.22-.5-.5-.5Z"/>
      <circle class="cls-1" cx="15.61" cy="2.82" r=".91"/>
      <path class="cls-1" d="M11.63,9.13c0-.51-.41-.91-.91-.91s-.91.41-.91.91.41.91.91.91.91-.41.91-.91Z"/>
      <path class="cls-1" d="M3.47,13.95c.5,0,.91-.41.91-.91s-.41-.91-.91-.91-.91.41-.91.91.41.91.91.91Z"/>
      <circle class="cls-1" cx="18.04" cy="10.96" r=".91"/>
      <path class="cls-1" d="M11.08,17.84c.5,0,.91-.41.91-.91s-.41-.91-.91-.91-.91.41-.91.91.41.91.91.91Z"/>
      <path class="cls-1" d="M14.32,7.59c.08.19.27.3.46.3.07,0,.13-.01.2-.04.25-.11.37-.4.26-.66-.29-.68-.74-1.3-1.3-1.78-.21-.18-.52-.16-.71.05-.18.21-.16.52.05.71.45.39.8.88,1.04,1.42Z"/>
      <path class="cls-1" d="M15.13,8.63c-.28,0-.5.22-.5.5,0,.6-.13,1.18-.39,1.71-.12.25-.02.55.23.67.07.03.15.05.22.05.18,0,.36-.1.45-.28.33-.67.5-1.4.5-2.15,0-.28-.22-.5-.5-.5Z"/>
      <path class="cls-1" d="M9.79,12.94c-.57-.14-1.12-.41-1.57-.79-.21-.17-.53-.15-.7.07-.18.21-.15.53.07.7.57.47,1.25.82,1.97.99.04,0,.08.01.12.01.23,0,.43-.15.49-.38.06-.27-.1-.54-.37-.6Z"/>
      <path class="cls-1" d="M6.56,7.55c.07.04.15.06.23.06.18,0,.36-.1.44-.27.27-.52.66-.99,1.14-1.34.22-.17.27-.48.1-.7-.17-.22-.48-.27-.7-.1-.59.45-1.09,1.03-1.43,1.68-.13.25-.03.55.21.67Z"/>
      <path class="cls-1" d="M6.69,11.46c.07,0,.14-.01.21-.04.25-.12.36-.41.25-.66-.23-.51-.35-1.06-.35-1.72,0-.28-.21-.5-.49-.51-.27,0-.5.21-.51.49v.12c0,.71.15,1.4.44,2.04.08.18.27.29.46.29Z"/>
      <path class="cls-1" d="M9.97,5.28c.57-.11,1.19-.09,1.76.06.04.01.09.02.13.02.22,0,.42-.15.48-.37.07-.27-.09-.54-.35-.61-.72-.19-1.49-.22-2.2-.08-.27.05-.45.31-.4.58.05.27.32.45.58.4Z"/>
      <path class="cls-1" d="M13.84,12.3c-.17-.22-.49-.25-.7-.08-.46.37-1.01.62-1.59.75-.27.06-.44.32-.38.59.05.23.26.39.49.39.04,0,.07,0,.11-.01.72-.16,1.41-.48,2-.94.22-.17.25-.48.08-.7Z"/>
    </g>
  </g>
</svg>