<?xml version="1.0" encoding="UTF-8"?>
<svg id="Capa_2" data-name="Capa 2" xmlns="http://www.w3.org/2000/svg" viewBox="0 0 20.4 20.4">
  <defs>
    <style>
      .cls-1 {
        fill: #fff;
        stroke-width: 0px;
      }
    </style>
  </defs>
  <g id="Capa_1-2" data-name="Capa 1">
    <path class="cls-1" d="M19.9,9.7h-3.49c-.1-.73-.42-1.43-.98-1.98l-2.75-2.75c-.56-.56-1.26-.88-1.98-.98V.5c0-.28-.22-.5-.5-.5s-.5.22-.5.5v3.49c-.73.1-1.43.42-1.98.98l-2.75,2.75c-.56.56-.88,1.26-.98,1.98H.5c-.28,0-.5.22-.5.5s.22.5.5.5h3.49c.1.73.42,1.43.98,1.98l2.75,2.75c.56.56,1.26.88,1.98.98v3.49c0,.28.22.5.5.5s.5-.22.5-.5v-3.49c.73-.1,1.43-.42,1.98-.98l2.75-2.75c.56-.56.88-1.26.98-1.98h3.49c.28,0,.5-.22.5-.5s-.22-.5-.5-.5ZM11.98,5.67l2.75,2.75c.36.36.59.81.68,1.28h-4.71v-4.71c.47.09.92.32,1.28.68ZM5.67,8.42l2.75-2.75c.36-.36.81-.59,1.28-.68v4.71h-4.71c.09-.47.32-.91.68-1.28ZM8.42,14.73l-2.75-2.75c-.36-.36-.59-.81-.68-1.28h4.71v4.71c-.47-.09-.92-.32-1.28-.68ZM14.73,11.98l-2.75,2.75c-.36.36-.81.59-1.28.68v-4.71h4.71c-.09.47-.32.91-.68,1.28Z"/>
  </g>
</svg>