<?xml version="1.0" encoding="UTF-8"?>
<svg id="Capa_2" xmlns="http://www.w3.org/2000/svg" viewBox="0 0 20.33 20.33">
  <defs>
    <style>
      .cls-1 {
        fill: #fff;
      }
    </style>
  </defs>
  <g id="Capa_1-2" data-name="Capa_1">
    <g>
      <path class="cls-1" d="M19.83,19.33H1V.5c0-.28-.22-.5-.5-.5s-.5.22-.5.5v19.33c0,.28.22.5.5.5h19.33c.28,0,.5-.22.5-.5s-.22-.5-.5-.5Z"/>
      <path class="cls-1" d="M7.98,7.16c.5,0,.91-.41.91-.91s-.41-.91-.91-.91-.91.41-.91.91.41.91.91.91Z"/>
      <path class="cls-1" d="M10.57,10.17c.51,0,.91-.41.91-.91s-.41-.91-.91-.91-.91.41-.91.91.41.91.91.91Z"/>
      <path class="cls-1" d="M4.61,15.75c0,.5.41.91.91.91s.91-.41.91-.91-.41-.91-.91-.91-.91.41-.91.91Z"/>
      <path class="cls-1" d="M7.98,13.24c.5,0,.91-.41.91-.91s-.41-.91-.91-.91-.91.41-.91.91.41.91.91.91Z"/>
      <circle class="cls-1" cx="14.42" cy="11.93" r=".91"/>
      <path class="cls-1" d="M17.2,15.67c.51,0,.91-.41.91-.91s-.41-.91-.91-.91-.91.41-.91.91.41.91.91.91Z"/>
      <circle class="cls-1" cx="13.93" cy="6.25" r=".91"/>
      <circle class="cls-1" cx="17.25" cy="3.75" r=".91"/>
      <path class="cls-1" d="M4.61,4.66c.5,0,.91-.41.91-.91s-.41-.91-.91-.91-.91.41-.91.91.41.91.91.91Z"/>
    </g>
  </g>
</svg>