<?xml version="1.0" encoding="UTF-8"?>
<svg id="Capa_2" data-name="Capa 2" xmlns="http://www.w3.org/2000/svg" viewBox="0 0 20.31 19.09">
  <defs>
    <style>
      .cls-1 {
        fill: #fff;
        stroke-width: 0px;
      }
    </style>
  </defs>
  <g id="Capa_1-2" data-name="Capa 1">
    <path class="cls-1" d="M17.9,10.7c-.52,0-1.01.16-1.4.46-.21.14-.38.32-.53.52l-3.47-1.6c.04-.18.07-.35.07-.53s-.02-.36-.06-.53l1.73-.79s.05-.03.08-.05l1.65-.76c.15.19.31.37.52.52.41.3.9.45,1.41.45,1.33,0,2.42-1.08,2.42-2.41s-1.08-2.42-2.42-2.42c-.77,0-1.47.38-1.92.98l-3.48-1.6c.04-.18.07-.35.07-.53,0-1.33-1.08-2.42-2.42-2.42s-2.41,1.08-2.41,2.42c0,.18.02.35.06.53l-3.49,1.61c-.45-.6-1.15-.98-1.91-.98-1.33,0-2.42,1.08-2.42,2.42s1.08,2.41,2.42,2.41c.5,0,.98-.16,1.41-.46.2-.15.36-.32.5-.51l3.47,1.6c-.04.17-.06.35-.06.53,0,.18.02.35.06.53l-3.48,1.6c-.15-.2-.31-.38-.51-.52-.42-.3-.91-.46-1.41-.46-1.33,0-2.42,1.08-2.42,2.42s1.08,2.41,2.42,2.41c.76,0,1.46-.38,1.91-.98l3.48,1.61c-.04.17-.06.35-.06.53,0,1.33,1.08,2.4,2.41,2.4s2.42-1.08,2.42-2.4c0-.18-.02-.36-.06-.53l3.47-1.61c.45.6,1.15.98,1.92.98,1.33,0,2.42-1.08,2.42-2.41s-1.08-2.42-2.42-2.42ZM11.57,14.74c-.81-.61-1.99-.62-2.82,0-.2.14-.37.32-.51.52l-3.48-1.6c.04-.18.06-.35.06-.53s-.02-.36-.06-.53l3.48-1.61c.45.6,1.15.98,1.91.98s1.47-.38,1.91-.97l3.48,1.6c-.04.17-.06.35-.06.53s.02.35.06.53l-3.47,1.6c-.15-.2-.31-.38-.51-.51ZM11.44,8.97c.08.18.13.37.13.58,0,.19-.05.4-.14.59-.22.49-.72.81-1.27.81s-1.05-.32-1.27-.81c-.09-.2-.13-.41-.13-.6,0-.21.04-.4.13-.59.23-.5.73-.83,1.28-.83s1.05.32,1.29.83ZM13.82,7.31s-.05.03-.08.05l-1.67.77c-.45-.6-1.15-.98-1.92-.98s-1.46.38-1.91.98l-3.48-1.61c.04-.18.06-.35.06-.53s-.02-.36-.06-.53l3.47-1.6c.14.19.31.37.51.52.42.29.91.45,1.4.45s1-.16,1.41-.45c.21-.15.37-.33.52-.52l3.47,1.6c-.04.17-.06.35-.06.53s.02.35.06.53l-1.73.8ZM17.9,4.57c.78,0,1.42.63,1.42,1.42s-.63,1.41-1.42,1.41c-.3,0-.58-.09-.83-.27-.21-.15-.36-.33-.46-.54-.09-.2-.13-.4-.13-.59,0-.21.04-.41.13-.59.23-.51.72-.82,1.28-.82ZM10.15,1c.78,0,1.42.63,1.42,1.42,0,.19-.05.4-.15.6-.09.21-.24.39-.44.54-.49.35-1.15.35-1.65,0-.2-.15-.36-.34-.45-.55-.09-.2-.13-.41-.13-.6,0-.78.63-1.42,1.41-1.42ZM3.25,7.12c-.26.18-.54.27-.83.27-.78,0-1.42-.63-1.42-1.41s.63-1.42,1.42-1.42c.55,0,1.05.32,1.28.83.08.17.13.37.13.58,0,.19-.05.4-.13.59-.1.21-.25.4-.44.54ZM2.42,14.52c-.78,0-1.42-.63-1.42-1.41s.63-1.42,1.42-1.42c.3,0,.57.09.83.28.19.13.34.33.45.56.08.17.13.37.13.58,0,.19-.05.4-.13.59-.23.5-.73.82-1.28.82ZM10.15,18.09c-.77,0-1.41-.63-1.41-1.4,0-.21.04-.4.13-.59.1-.22.26-.41.45-.55.25-.18.53-.27.82-.27s.58.09.84.28c.19.13.34.32.45.55.08.18.13.37.13.58,0,.77-.63,1.4-1.42,1.4ZM17.9,14.52c-.55,0-1.06-.32-1.28-.81-.09-.2-.13-.4-.13-.59,0-.21.04-.41.13-.59.1-.22.25-.41.46-.55.24-.18.52-.27.82-.27.78,0,1.42.63,1.42,1.42s-.63,1.41-1.42,1.41Z"/>
  </g>
</svg>