<?xml version="1.0" encoding="UTF-8"?>
<svg id="Capa_2" data-name="Capa 2" xmlns="http://www.w3.org/2000/svg" viewBox="0 0 20.33 20.33">
  <defs>
    <style>
      .cls-1 {
        fill: #fff;
        stroke-width: 0px;
      }
    </style>
  </defs>
  <g id="Capa_1-2" data-name="Capa 1">
    <g>
      <path class="cls-1" d="M19.83,19.33H1V.5c0-.28-.22-.5-.5-.5s-.5.22-.5.5v19.33c0,.28.22.5.5.5h19.33c.28,0,.5-.22.5-.5s-.22-.5-.5-.5Z"/>
      <circle class="cls-1" cx="15.32" cy="1.8" r=".91"/>
      <path class="cls-1" d="M11.08,10.17c.5,0,.91-.41.91-.91s-.41-.91-.91-.91-.91.41-.91.91.41.91.91.91Z"/>
      <path class="cls-1" d="M12.57,14.31c-.51,0-.91.41-.91.91s.41.91.91.91.91-.41.91-.91-.41-.91-.91-.91Z"/>
      <path class="cls-1" d="M17.26,9.25c0,.51.41.91.91.91s.91-.41.91-.91-.41-.91-.91-.91-.91.41-.91.91Z"/>
      <path class="cls-1" d="M4.01,14.94c.5,0,.91-.41.91-.91s-.41-.91-.91-.91-.91.41-.91.91.41.91.91.91Z"/>
      <path class="cls-1" d="M3.51,17.42s.07,0,.1-.01c7.36-1.51,13.27-7.46,15.05-15.14.06-.27-.11-.54-.38-.6-.26-.06-.54.11-.6.38-1.69,7.3-7.29,12.95-14.27,14.38-.27.05-.44.32-.39.59.05.24.26.4.49.4Z"/>
    </g>
  </g>
</svg>