<?xml version="1.0" encoding="UTF-8"?>
<svg id="Capa_2" xmlns="http://www.w3.org/2000/svg" viewBox="0 0 20.4 20.33">
  <defs>
    <style>
      .cls-1 {
        fill: #fff;
      }
    </style>
  </defs>
  <g id="Capa_1-2" data-name="Capa_1">
    <g>
      <path class="cls-1" d="M19.83,20.33H.5c-.28,0-.5-.22-.5-.5V.5C0,.22.22,0,.5,0s.5.22.5.5v18.83h18.83c.28,0,.5.22.5.5s-.22.5-.5.5Z"/>
      <circle class="cls-1" cx="3.51" cy="11.83" r=".91"/>
      <circle class="cls-1" cx="13.63" cy="2.86" r=".91"/>
      <circle class="cls-1" cx="8.34" cy="16.64" r=".91"/>
      <circle class="cls-1" cx="19.49" cy="7.01" r=".91"/>
      <circle class="cls-1" cx="16.05" cy="8.26" r=".91"/>
      <circle class="cls-1" cx="10.36" cy="13.44" r=".91"/>
      <circle class="cls-1" cx="6.13" cy="8.26" r=".91"/>
      <path class="cls-1" d="M4.54,15.25c-.14,0-.28-.06-.38-.18-.18-.21-.15-.53.06-.71L17.3,3.23c.21-.18.53-.15.71.06.18.21.15.53-.06.71L4.86,15.13c-.09.08-.21.12-.32.12Z"/>
      <path class="cls-1" d="M14.44,13.62c-.14,0-.28-.06-.38-.18l-6.71-7.89c-.18-.21-.15-.53.06-.71.21-.18.53-.15.71.06l6.71,7.89c.18.21.15.53-.06.71-.09.08-.21.12-.32.12Z"/>
    </g>
  </g>
</svg>