<?xml version="1.0" encoding="UTF-8"?>
<svg id="Capa_2" data-name="Capa 2" xmlns="http://www.w3.org/2000/svg" viewBox="0 0 20.33 20.33">
  <defs>
    <style>
      .cls-1 {
        fill: #fff;
        stroke-width: 0px;
      }
    </style>
  </defs>
  <g id="Capa_1-2" data-name="Capa 1">
    <g>
      <path class="cls-1" d="M19.83,19.33H1V.5c0-.28-.22-.5-.5-.5s-.5.22-.5.5v19.33c0,.28.22.5.5.5h19.33c.28,0,.5-.22.5-.5s-.22-.5-.5-.5Z"/>
      <path class="cls-1" d="M3.51,17.47s.07,0,.1-.01c6.81-1.42,12.28-7.01,13.92-14.23.06-.27-.11-.54-.38-.6-.28-.06-.54.11-.6.38-1.56,6.84-6.72,12.13-13.15,13.47-.27.06-.44.32-.39.59.05.24.26.4.49.4Z"/>
      <path class="cls-1" d="M13.89,2.83s.07.01.11.01c.23,0,.44-.16.49-.39.11-.5.2-1.02.27-1.53.03-.27-.16-.52-.43-.56-.28-.04-.52.16-.56.43-.06.48-.14.96-.25,1.43-.06.27.11.54.38.6Z"/>
      <path class="cls-1" d="M7.65,12.23c.1,0,.2-.03.28-.09.82-.56,1.59-1.21,2.29-1.92.19-.2.19-.51,0-.71-.2-.2-.51-.19-.71,0-.66.67-1.38,1.27-2.15,1.8-.23.16-.29.47-.13.7.1.14.25.22.41.22Z"/>
      <path class="cls-1" d="M11.71,8.13c.16,0,.32-.08.42-.22.56-.83,1.04-1.71,1.43-2.62.11-.25,0-.55-.26-.66-.25-.11-.55,0-.66.26-.37.86-.82,1.68-1.35,2.46-.15.23-.09.54.14.69.09.06.18.08.28.08Z"/>
      <path class="cls-1" d="M3.7,14.17c.05,0,.1,0,.15-.02.49-.16.98-.34,1.45-.55.25-.11.37-.41.26-.66-.11-.25-.41-.37-.66-.26-.44.19-.9.36-1.36.51-.26.08-.41.37-.32.63.07.21.26.35.48.35Z"/>
      <path class="cls-1" d="M18.79,6.58s.06,0,.09,0c.24,0,.44-.17.49-.41.1-.5.17-1.02.21-1.53.03-.28-.18-.52-.45-.54-.27,0-.52.18-.54.45-.04.48-.11.97-.2,1.44-.05.27.13.53.4.58Z"/>
      <path class="cls-1" d="M14.65,13.43c-.64.69-1.34,1.32-2.09,1.87-.22.17-.27.48-.11.7.1.13.25.2.4.2.1,0,.21-.03.3-.1.8-.59,1.55-1.26,2.23-2,.19-.2.17-.52-.03-.71-.2-.19-.52-.17-.71.03Z"/>
      <path class="cls-1" d="M16.51,11.89c.08.05.17.08.27.08.17,0,.33-.08.42-.23.53-.85.98-1.75,1.35-2.67.1-.26-.03-.55-.28-.65-.26-.1-.55.03-.65.28-.34.87-.76,1.71-1.26,2.51-.15.23-.08.54.16.69Z"/>
      <path class="cls-1" d="M10.15,16.76c-.44.21-.89.4-1.34.56-.26.09-.39.38-.3.64.07.2.27.33.47.33.06,0,.11,0,.17-.03.48-.17.96-.37,1.43-.6.25-.12.36-.42.24-.67-.12-.25-.42-.36-.67-.24Z"/>
    </g>
  </g>
</svg>